<?xml version="1.0" encoding="UTF-8"?>
<!DOCTYPE svg PUBLIC "-//W3C//DTD SVG 1.1//EN" "http://www.w3.org/Graphics/SVG/1.1/DTD/svg11.dtd">
<!-- Creator: CorelDRAW 2019 (64-Bit) -->
<svg xmlns="http://www.w3.org/2000/svg" xml:space="preserve" width="5.90551in" height="3.23362in" version="1.1" style="shape-rendering:geometricPrecision; text-rendering:geometricPrecision; image-rendering:optimizeQuality; fill-rule:evenodd; clip-rule:evenodd"
viewBox="0 0 5904.35 3232.99"
 xmlns:xlink="http://www.w3.org/1999/xlink"
 xmlns:xodm="http://www.corel.com/coreldraw/odm/2003">
 <defs>
  <style type="text/css">
   <![CDATA[
    .fil16 {fill:#B3B3B3}
    .fil11 {fill:#CCCCCC}
    .fil0 {fill:#E6E6E6}
    .fil7 {fill:#333333;fill-rule:nonzero}
    .fil17 {fill:#8257E6;fill-rule:nonzero}
    .fil10 {fill:white;fill-rule:nonzero}
    .fil15 {fill:url(#id0)}
    .fil13 {fill:url(#id1)}
    .fil18 {fill:url(#id2)}
    .fil9 {fill:url(#id3)}
    .fil14 {fill:url(#id4)}
    .fil12 {fill:url(#id5)}
    .fil19 {fill:url(#id6)}
    .fil6 {fill:url(#id7);fill-rule:nonzero}
    .fil5 {fill:url(#id8);fill-rule:nonzero}
    .fil8 {fill:url(#id9);fill-rule:nonzero}
    .fil2 {fill:url(#id10);fill-rule:nonzero}
    .fil4 {fill:url(#id11);fill-rule:nonzero}
    .fil3 {fill:url(#id12);fill-rule:nonzero}
    .fil1 {fill:url(#id13);fill-rule:nonzero;fill-opacity:0.501961}
   ]]>
  </style>
  <linearGradient id="id0" gradientUnits="userSpaceOnUse" x1="-525.83" y1="1679.64" x2="4348.55" y2="1679.64">
   <stop offset="0" style="stop-opacity:1; stop-color:#8257E6"/>
   <stop offset="0.529412" style="stop-opacity:1; stop-color:#4763FF"/>
   <stop offset="1" style="stop-opacity:1; stop-color:#04D361"/>
  </linearGradient>
  <linearGradient id="id1" gradientUnits="userSpaceOnUse" xlink:href="#id0" x1="-525.83" y1="1335.96" x2="4348.55" y2="1335.96">
  </linearGradient>
  <linearGradient id="id2" gradientUnits="userSpaceOnUse" xlink:href="#id0" x1="-2122.02" y1="3131.72" x2="2752.35" y2="3131.72">
  </linearGradient>
  <linearGradient id="id3" gradientUnits="userSpaceOnUse" xlink:href="#id0" x1="-2381.8" y1="1569.56" x2="2492.5" y2="1569.56">
  </linearGradient>
  <linearGradient id="id4" gradientUnits="userSpaceOnUse" xlink:href="#id0" x1="-869.5" y1="1679.64" x2="4004.87" y2="1679.64">
  </linearGradient>
  <linearGradient id="id5" gradientUnits="userSpaceOnUse" xlink:href="#id0" x1="-869.5" y1="1335.96" x2="4004.87" y2="1335.96">
  </linearGradient>
  <linearGradient id="id6" gradientUnits="userSpaceOnUse" xlink:href="#id0" x1="-14.87" y1="188.81" x2="2739.88" y2="188.81">
  </linearGradient>
  <linearGradient id="id7" gradientUnits="userSpaceOnUse" xlink:href="#id0" x1="-3533.72" y1="2668" x2="2667.6" y2="2668">
  </linearGradient>
  <linearGradient id="id8" gradientUnits="userSpaceOnUse" xlink:href="#id0" x1="-21061.13" y1="1652.23" x2="17494.35" y2="1652.23">
  </linearGradient>
  <linearGradient id="id9" gradientUnits="userSpaceOnUse" xlink:href="#id0" x1="-3083.77" y1="1909.85" x2="2743.83" y2="1909.85">
  </linearGradient>
  <linearGradient id="id10" gradientUnits="userSpaceOnUse" xlink:href="#id0" x1="-9544.68" y1="1750.83" x2="7783.69" y2="1750.83">
  </linearGradient>
  <linearGradient id="id11" gradientUnits="userSpaceOnUse" xlink:href="#id0" x1="-2783.27" y1="1911.31" x2="3072.74" y2="1911.31">
  </linearGradient>
  <linearGradient id="id12" gradientUnits="userSpaceOnUse" xlink:href="#id0" x1="-2953.19" y1="521.33" x2="3248.12" y2="521.33">
  </linearGradient>
  <linearGradient id="id13" gradientUnits="userSpaceOnUse" xlink:href="#id0" x1="-22555.9" y1="1873.43" x2="8262.79" y2="1873.43">
  </linearGradient>
 </defs>
 <g id="Layer_x0020_1">
  <metadata id="CorelCorpID_0Corel-Layer"/>
  <g id="_2553956207712">
   <path class="fil0" d="M1558.13 0l2334 0c52.63,0 95.69,43.06 95.69,95.69l0 2680.23c0,52.63 -43.06,95.69 -95.69,95.69l-2334 0c-52.63,0 -95.69,-43.06 -95.69,-95.69l0 -2680.23c0,-52.63 43.06,-95.69 95.69,-95.69z"/>
   <path class="fil1" d="M3153.47 548.93l702.25 0c13.01,0 24.83,5.31 33.38,13.86 8.55,8.55 13.86,20.37 13.86,33.38l0 952.62 43.22 0 894.95 0 -23.24 -23.24c-8.97,-8.97 -8.97,-23.51 0,-32.49 8.97,-8.97 23.52,-8.97 32.48,0l63.35 63.35 -0.04 0.05 0.04 0.04c8.92,8.97 8.88,23.48 -0.09,32.4l-63.46 63c-8.97,8.92 -23.48,8.88 -32.4,-0.09 -8.92,-8.97 -8.88,-23.47 0.09,-32.39l24.86 -24.68 -896.54 0 -43.22 0 0 953.99c0,13.01 -5.31,24.83 -13.86,33.38 -8.55,8.55 -20.37,13.86 -33.38,13.86l-702.25 0c-12.95,0 -24.75,-5.31 -33.3,-13.86l-0.07 0c-8.55,-8.55 -13.86,-20.37 -13.86,-33.38l0 -1952.56c0,-13.01 5.31,-24.83 13.86,-33.38l0.07 0c8.55,-8.55 20.35,-13.86 33.3,-13.86zm702.25 36.89l-702.25 0c-2.85,0 -5.45,1.16 -7.33,3.02l0.04 0.04c-1.88,1.88 -3.05,4.46 -3.05,7.29l0 1952.56c0,2.83 1.17,5.41 3.05,7.29l-0.04 0.04c1.88,1.86 4.48,3.02 7.33,3.02l702.25 0c2.83,0 5.41,-1.17 7.29,-3.05 1.88,-1.88 3.05,-4.47 3.05,-7.29l0 -1952.56c0,-2.83 -1.17,-5.41 -3.05,-7.29 -1.88,-1.89 -4.47,-3.05 -7.29,-3.05z"/>
   <path class="fil2" d="M5394.34 965.84c135.09,0 258.22,22.09 348.1,57.81 99.55,39.56 161.3,98.03 161.91,166.1l0.01 1 0 777.14c0,65.24 -62.21,120.77 -162.78,157.82 -89.48,32.96 -212.3,53.35 -347.23,53.35 -134.93,0 -257.75,-20.39 -347.23,-53.35 -100.57,-37.05 -162.78,-92.58 -162.78,-157.82 0,-1.15 0.06,-2.29 0.16,-3.42l3.49 -745.27c-2.41,-9.27 -3.64,-18.76 -3.64,-28.44 0,-68.5 61.88,-127.35 161.92,-167.1 89.87,-35.72 213.01,-57.81 348.1,-57.81zm436.24 345.01c-24.31,17.64 -54,33.43 -88.14,47 -89.87,35.71 -213.01,57.81 -348.1,57.81 -135.09,0 -258.22,-22.09 -348.1,-57.81 -32.79,-13.03 -61.47,-28.11 -85.23,-44.91l-0.8 170.46c1.35,1.58 2.59,3.29 3.7,5.13 18.76,31.27 71.1,59.98 144.98,81.81 77.66,22.94 176.87,36.67 285.44,36.67 115.42,0 220.22,-15.49 299.74,-41.05 73.44,-23.61 122.91,-53.78 134.52,-85.48 0.57,-1.54 1.23,-3.03 1.97,-4.45l0 -165.18zm-868.91 -137.66l-0.16 34.71c11.6,29.42 52.17,57.95 111.82,81.65 81.36,32.33 194.8,52.33 321.01,52.33 126.21,0 239.65,-20 321.01,-52.33 71.19,-28.29 115.23,-63.47 115.23,-98.8 0,-35.34 -44.04,-70.51 -115.23,-98.8 -81.36,-32.33 -194.8,-52.34 -321.01,-52.34 -126.22,0 -239.65,20 -321.01,52.34 -59.37,23.59 -99.85,51.97 -111.66,81.24zm-1.92 411.03l-0.69 148.42c2.3,2.07 4.38,4.46 6.16,7.17 20.46,31.07 73.43,59.39 147.32,80.77 76.99,22.28 174.8,35.57 281.81,35.57 109.12,0 208.85,-13.9 286.76,-37.11 73.92,-22.02 126.05,-50.92 144.17,-82.3 1.52,-2.61 3.31,-4.97 5.31,-7.06l0 -146.66c-30.28,20.57 -68.93,38.47 -114.02,52.97 -86.79,27.9 -199.54,44.8 -322.22,44.8 -115.31,0 -221.81,-14.91 -306.19,-39.84 -51.18,-15.12 -94.86,-34.36 -128.4,-56.73zm-1.16 248.35l-0.62 132.24c0.08,1.02 0.13,2.04 0.13,3.08 0,31.02 43.7,62.62 114.37,88.65 81.75,30.11 195.5,48.74 321.87,48.74 126.37,0 240.12,-18.63 321.87,-48.74 70.66,-26.03 114.37,-57.63 114.37,-88.65l0 -135.59c-33.41,22.61 -77.11,42.06 -128.44,57.35 -84.57,25.18 -191.69,40.28 -307.8,40.28 -113.41,0 -218.41,-14.47 -302.27,-38.74 -53.49,-15.48 -98.97,-35.39 -133.49,-58.62z"/>
   <path class="fil3" d="M2562.72 526.25c17.19,17.28 17.11,45.23 -0.17,62.42 -17.28,17.19 -45.23,17.11 -62.42,-0.17l-106.61 -107.39 -107.45 107.45c-17.28,17.28 -45.31,17.28 -62.59,0 -17.28,-17.28 -17.28,-45.31 0,-62.59l138.77 -138.77 0.09 0.09 0.09 -0.09c17.28,-17.19 45.23,-17.11 62.42,0.17l137.88 138.89z"/>
   <path class="fil4" d="M2137.19 2749.71c-24.45,0 -44.27,-19.82 -44.27,-44.26 0,-24.45 19.82,-44.26 44.27,-44.26 57.75,0 110.27,-23.66 148.38,-61.76 38.24,-38.24 62,-90.82 62.05,-148.49l1.85 -2032.44c0,-24.35 19.74,-44.09 44.09,-44.09 24.35,0 44.09,19.74 44.09,44.09l-1.85 2032.44c-0.07,82.35 -33.62,157.06 -87.64,211.08 -54.12,54.12 -128.77,87.7 -210.97,87.7z"/>
   <path class="fil5" d="M60.16 2162.96c-1.17,16.59 -15.57,29.09 -32.16,27.92 -16.59,-1.17 -29.09,-15.57 -27.92,-32.16 3.9,-53.33 26.38,-101.07 60.37,-135.47 13.33,-13.49 28.4,-24.94 44.82,-33.92 -19.19,-20.91 -30.91,-48.79 -30.91,-79.4 0,-32.43 13.15,-61.8 34.41,-83.06 21.26,-21.26 50.62,-34.41 83.05,-34.41 32.43,0 61.8,13.15 83.06,34.41 21.26,21.26 34.41,50.63 34.41,83.06 0,30.61 -11.72,58.49 -30.91,79.4 16.41,8.98 31.49,20.44 44.82,33.92 34,34.4 56.48,82.14 60.37,135.47 1.17,16.59 -11.33,30.99 -27.92,32.16 -16.59,1.17 -30.99,-11.33 -32.16,-27.92 -2.83,-38.61 -18.9,-72.97 -43.17,-97.53 -23.34,-23.61 -54.43,-38.04 -88.49,-38.04 -34.06,0 -65.15,14.43 -88.49,38.04 -24.27,24.56 -40.35,58.92 -43.17,97.53zm846.34 -235.77l0 295.6c0,31.29 12.82,59.76 33.46,80.41 20.65,20.65 49.11,33.46 80.41,33.46l422.68 0 -16.06 -16.07c-7.07,-7.07 -7.07,-18.52 0,-25.59 7.06,-7.07 18.52,-7.07 25.59,0l46.83 46.83c3.35,3.28 5.42,7.86 5.42,12.91 0,5.51 -2.46,10.44 -6.35,13.76l-45.9 45.57c-7.07,7.03 -18.49,6.99 -25.52,-0.07 -7.03,-7.07 -6.99,-18.49 0.07,-25.52l15.76 -15.64 -422.53 0c-41.28,0 -78.8,-16.88 -105.99,-44.07 -27.19,-27.19 -44.07,-64.71 -44.07,-105.99l0 -295.6 -309.98 0c-9.99,0 -18.09,-8.1 -18.09,-18.09 0,-9.99 8.1,-18.09 18.09,-18.09l328.08 0 554.65 0 -16.06 -16.07c-7.07,-7.07 -7.07,-18.52 0,-25.59 7.06,-7.07 18.52,-7.07 25.59,0l46.83 46.83c3.35,3.28 5.42,7.86 5.42,12.92 0,5.51 -2.46,10.44 -6.35,13.76l-45.9 45.57c-7.07,7.03 -18.49,6.99 -25.52,-0.07 -7.03,-7.07 -6.99,-18.49 0.07,-25.52l15.76 -15.64 -284.23 0 0 72.77c0,31.29 12.82,59.76 33.46,80.4 20.65,20.65 49.11,33.47 80.41,33.47l170.52 0 -16.06 -16.07c-7.07,-7.07 -7.07,-18.52 0,-25.59 7.06,-7.06 18.52,-7.06 25.59,0l46.83 46.83c3.35,3.28 5.42,7.86 5.42,12.92 0,5.51 -2.46,10.44 -6.35,13.76l-45.9 45.57c-7.07,7.03 -18.49,6.99 -25.52,-0.07 -7.03,-7.07 -6.99,-18.49 0.07,-25.52l15.76 -15.64 -170.36 0c-41.28,0 -78.8,-16.87 -105.99,-44.07 -27.19,-27.19 -44.07,-64.71 -44.07,-105.99l0 -72.77 -215.97 0zm-346.18 -1258.43c-9.99,0 -18.09,-8.1 -18.09,-18.1 0,-9.99 8.1,-18.09 18.09,-18.09l913.59 0 -14.99 -14.99c-7.07,-7.07 -7.07,-18.52 0,-25.59 7.06,-7.07 18.52,-7.07 25.59,0l46.96 46.96 -0.04 0.04 0.04 0.03c7.03,7.07 6.99,18.49 -0.07,25.52l-46.88 46.53c-7.06,7.03 -18.49,6.99 -25.51,-0.07 -7.03,-7.07 -6.99,-18.49 0.07,-25.52l16.85 -16.72 -915.6 0zm892.26 716.47c-7.07,7.03 -18.49,6.99 -25.52,-0.07 -7.03,-7.07 -6.99,-18.49 0.07,-25.52l15.76 -15.64 -284.23 0 0 72.77c0,31.29 12.82,59.76 33.46,80.41 20.65,20.65 49.11,33.46 80.41,33.46l170.52 0 -16.06 -16.07c-7.07,-7.07 -7.07,-18.52 0,-25.59 7.06,-7.07 18.52,-7.07 25.59,0l46.83 46.83c3.35,3.28 5.42,7.86 5.42,12.91 0,5.51 -2.46,10.44 -6.35,13.76l-45.9 45.57c-7.07,7.03 -18.49,6.99 -25.52,-0.07 -7.03,-7.07 -6.99,-18.49 0.07,-25.52l15.76 -15.64 -170.36 0c-41.28,0 -78.8,-16.87 -105.99,-44.07 -27.19,-27.19 -44.07,-64.71 -44.07,-105.99l0 -72.77 -562.15 0c-9.99,0 -18.09,-8.1 -18.09,-18.09 0,-9.99 8.1,-18.09 18.09,-18.09l882.73 0 -16.06 -16.07c-7.07,-7.07 -7.07,-18.52 0,-25.59 7.06,-7.06 18.52,-7.06 25.59,0l46.83 46.83c3.35,3.28 5.42,7.86 5.42,12.92 0,5.51 -2.46,10.44 -6.35,13.76l-45.9 45.57zm-1392.43 -562.45c-1.17,16.59 -15.57,29.09 -32.16,27.92 -16.59,-1.17 -29.09,-15.57 -27.92,-32.16 3.9,-53.33 26.38,-101.07 60.37,-135.47 13.33,-13.49 28.4,-24.94 44.82,-33.92 -19.19,-20.91 -30.91,-48.79 -30.91,-79.4 0,-32.43 13.15,-61.8 34.41,-83.06 21.26,-21.26 50.62,-34.41 83.05,-34.41 32.43,0 61.8,13.15 83.06,34.41 21.26,21.26 34.41,50.62 34.41,83.06 0,30.61 -11.72,58.49 -30.91,79.4 16.41,8.98 31.49,20.44 44.82,33.92 34,34.39 56.48,82.14 60.37,135.47 1.17,16.59 -11.33,30.99 -27.92,32.16 -16.59,1.17 -30.99,-11.33 -32.16,-27.92 -2.83,-38.61 -18.9,-72.97 -43.17,-97.53 -23.34,-23.61 -54.43,-38.04 -88.49,-38.04 -34.06,0 -65.15,14.43 -88.49,38.04 -24.27,24.56 -40.35,58.92 -43.17,97.53zm172.08 -293.45c-10.34,-10.34 -24.63,-16.74 -40.41,-16.74 -15.78,0 -30.07,6.4 -40.41,16.74 -10.34,10.34 -16.74,24.63 -16.74,40.41 0,15.78 6.4,30.07 16.74,40.41 10.34,10.34 24.63,16.74 40.41,16.74 15.78,0 30.08,-6.4 40.41,-16.74 10.34,-10.34 16.73,-24.63 16.73,-40.41 0,-15.78 -6.4,-30.08 -16.73,-40.41zm-172.08 968.69c-1.17,16.59 -15.57,29.09 -32.16,27.92 -16.59,-1.17 -29.09,-15.57 -27.92,-32.16 3.9,-53.34 26.38,-101.07 60.37,-135.47 13.33,-13.49 28.4,-24.94 44.82,-33.92 -19.19,-20.91 -30.91,-48.79 -30.91,-79.41 0,-32.43 13.15,-61.8 34.41,-83.05 21.26,-21.26 50.62,-34.41 83.05,-34.41 32.43,0 61.8,13.15 83.06,34.41 21.26,21.26 34.41,50.62 34.41,83.05 0,30.62 -11.72,58.5 -30.91,79.41 16.41,8.98 31.49,20.43 44.82,33.92 34,34.39 56.48,82.13 60.37,135.47 1.17,16.59 -11.33,30.99 -27.92,32.16 -16.59,1.17 -30.99,-11.33 -32.16,-27.92 -2.83,-38.61 -18.9,-72.97 -43.17,-97.54 -23.34,-23.61 -54.43,-38.04 -88.49,-38.04 -34.06,0 -65.15,14.42 -88.49,38.04 -24.27,24.57 -40.35,58.93 -43.17,97.54zm172.08 -293.45c-10.34,-10.34 -24.63,-16.73 -40.41,-16.73 -15.78,0 -30.07,6.4 -40.41,16.73 -10.34,10.34 -16.74,24.63 -16.74,40.41 0,15.78 6.4,30.07 16.74,40.41 10.34,10.34 24.63,16.73 40.41,16.73 15.78,0 30.08,-6.39 40.41,-16.73 10.34,-10.34 16.73,-24.63 16.73,-40.41 0,-15.78 -6.4,-30.07 -16.73,-40.41zm0 664.94c-10.34,-10.34 -24.63,-16.74 -40.41,-16.74 -15.78,0 -30.07,6.4 -40.41,16.74 -10.34,10.34 -16.74,24.63 -16.74,40.41 0,15.78 6.4,30.07 16.74,40.41 10.34,10.34 24.63,16.74 40.41,16.74 15.78,0 30.08,-6.4 40.41,-16.74 10.34,-10.34 16.73,-24.63 16.73,-40.41 0,-15.78 -6.4,-30.07 -16.73,-40.41z"/>
   <path class="fil6" d="M1919.6 2534.04c17.19,-17.28 45.14,-17.36 62.42,-0.17 17.28,17.19 17.36,45.14 0.17,62.42l-137.88 138.89c-17.19,17.28 -45.14,17.36 -62.42,0.17l-0.09 -0.09 -0.09 0.09 -138.77 -138.77c-17.28,-17.28 -17.28,-45.31 0,-62.59 17.28,-17.28 45.31,-17.28 62.59,0l107.45 107.45 106.61 -107.39z"/>
   <path class="fil7" d="M1940.97 921.03l0 -85 51 0 0 12.69 -36.68 0 0 22.13 32.6 0 0 12.58 -32.6 0 0 24.92 36.68 0 0 12.69 -51 0zm85.24 0l-21.07 -64.04 15.13 0 12.23 38.89c0.7,2.33 1.34,4.74 1.92,7.22 0.58,2.49 1.03,4.46 1.34,5.94 0.39,-1.48 0.88,-3.45 1.46,-5.94 0.58,-2.48 1.22,-4.85 1.92,-7.1l11.99 -39.01 14.79 0 -20.96 64.04 -18.75 0zm79.3 1.17c-5.43,0 -10.17,-1.05 -14.21,-3.15 -4.03,-2.09 -7.16,-5.03 -9.37,-8.79 -2.21,-3.76 -3.32,-8.17 -3.32,-13.21l0 -16.07c0,-5.05 1.11,-9.45 3.32,-13.22 2.21,-3.76 5.34,-6.7 9.37,-8.79 4.03,-2.09 8.77,-3.14 14.21,-3.14 5.36,0 10.03,1.05 14.03,3.14 4,2.1 7.1,5.03 9.31,8.79 2.21,3.77 3.32,8.17 3.32,13.22l0 11.53 -39.47 0 0 4.54c0,9.08 4.31,13.62 12.93,13.62 6.67,0 10.6,-2.21 11.76,-6.64l14.32 0c-1.09,5.51 -4.01,9.92 -8.79,13.21 -4.77,3.3 -10.58,4.95 -17.41,4.95zm-12.81 -41.22l0 2.44 25.38 -0.12 0 -2.44c0,-4.42 -1.05,-7.82 -3.15,-10.19 -2.09,-2.37 -5.24,-3.55 -9.43,-3.55 -4.27,0 -7.47,1.2 -9.6,3.61 -2.14,2.41 -3.2,5.82 -3.2,10.25zm56.59 40.06l0 -64.04 14.21 0 0 12.23 0.23 0c0.7,-4.19 2.52,-7.47 5.47,-9.84 2.95,-2.37 6.79,-3.55 11.53,-3.55 6.29,0 11.31,2.09 15.08,6.29 3.76,4.19 5.64,9.82 5.64,16.88l0 42.04 -14.55 0 0 -40.52c0,-3.88 -1.03,-6.87 -3.09,-8.97 -2.06,-2.1 -4.83,-3.15 -8.33,-3.15 -3.65,0 -6.5,1.09 -8.56,3.26 -2.05,2.17 -3.08,5.28 -3.08,9.32l0 40.06 -14.56 0zm102.82 0c-6.13,0 -10.93,-1.71 -14.38,-5.12 -3.45,-3.41 -5.18,-8.11 -5.18,-14.09l0 -31.67 -17.35 0 0 -13.16 17.35 0 0 -18.05 14.67 0 0 18.05 24.57 0 0 13.16 -24.57 0 0 31.67c0,4.04 1.98,6.05 5.94,6.05l17.47 0 0 13.16 -18.51 0zm-274.45 124.13l0 -85 14.56 0 0 71.5 36.1 0 0 13.51 -50.66 0zm92.8 1.05c-8.23,0 -14.75,-2.27 -19.56,-6.81 -4.81,-4.54 -7.22,-10.66 -7.22,-18.34l0 -15.84c0,-7.69 2.41,-13.8 7.22,-18.34 4.81,-4.54 11.34,-6.81 19.56,-6.81 8.23,0 14.75,2.27 19.56,6.81 4.81,4.54 7.22,10.62 7.22,18.22l0 15.95c0,7.68 -2.41,13.8 -7.22,18.34 -4.81,4.54 -11.34,6.81 -19.56,6.81zm0 -12.69c3.88,0 6.89,-1.07 9.03,-3.2 2.13,-2.13 3.2,-5.22 3.2,-9.26l0 -15.84c0,-4.04 -1.07,-7.12 -3.2,-9.26 -2.14,-2.13 -5.14,-3.2 -9.03,-3.2 -3.88,0 -6.89,1.07 -9.03,3.2 -2.13,2.13 -3.2,5.22 -3.2,9.26l0 15.84c0,4.03 1.07,7.12 3.2,9.26 2.14,2.13 5.14,3.2 9.03,3.2zm69.86 12.69c-8.23,0 -14.75,-2.27 -19.56,-6.81 -4.81,-4.54 -7.22,-10.66 -7.22,-18.34l0 -15.84c0,-7.69 2.41,-13.8 7.22,-18.34 4.81,-4.54 11.34,-6.81 19.56,-6.81 8.23,0 14.75,2.27 19.56,6.81 4.81,4.54 7.22,10.62 7.22,18.22l0 15.95c0,7.68 -2.41,13.8 -7.22,18.34 -4.81,4.54 -11.34,6.81 -19.56,6.81zm0 -12.69c3.88,0 6.89,-1.07 9.03,-3.2 2.13,-2.13 3.2,-5.22 3.2,-9.26l0 -15.84c0,-4.04 -1.07,-7.12 -3.2,-9.26 -2.14,-2.13 -5.14,-3.2 -9.03,-3.2 -3.88,0 -6.89,1.07 -9.03,3.2 -2.13,2.13 -3.2,5.22 -3.2,9.26l0 15.84c0,4.03 1.07,7.12 3.2,9.26 2.14,2.13 5.14,3.2 9.03,3.2zm43.9 32.6l0 -85 14.21 0 0 12.23 0.23 0c0.7,-4.27 2.54,-7.57 5.53,-9.9 2.99,-2.33 6.81,-3.5 11.47,-3.5 6.44,0 11.6,2.22 15.49,6.64 3.88,4.42 5.82,10.36 5.82,17.82l0 17.35c0,7.53 -1.94,13.51 -5.82,17.93 -3.88,4.42 -9.04,6.64 -15.49,6.64 -4.66,0 -8.48,-1.18 -11.47,-3.55 -2.99,-2.37 -4.83,-5.65 -5.53,-9.84l-0.35 0 0.46 15.26 0 17.93 -14.55 0zm26.31 -32.37c3.72,0 6.64,-1.09 8.73,-3.26 2.09,-2.17 3.14,-5.28 3.14,-9.31l0 -16.07c0,-4.03 -1.05,-7.14 -3.14,-9.31 -2.09,-2.18 -5.01,-3.26 -8.73,-3.26 -3.65,0 -6.52,1.11 -8.62,3.32 -2.09,2.21 -3.15,5.29 -3.15,9.25l0 16.07c0,3.96 1.05,7.04 3.15,9.25 2.09,2.21 4.97,3.32 8.62,3.32z"/>
   <path class="fil8" d="M1768.76 1777.32c0,-24.44 19.82,-44.26 44.27,-44.26 24.44,0 44.26,19.82 44.26,44.26l0 926.73c0,24.44 -19.82,44.26 -44.26,44.26 -24.45,0 -44.27,-19.82 -44.27,-44.26l0 -926.73zm298.78 -1404.49c24.45,0 44.27,19.82 44.27,44.27 0,24.44 -19.82,44.26 -44.27,44.26 -57.77,0 -110.33,23.67 -148.46,61.79 -38.13,38.13 -61.79,90.68 -61.79,148.46l0 605.82c0,24.44 -19.82,44.26 -44.26,44.26 -24.45,0 -44.27,-19.82 -44.27,-44.26l0 -605.82c0,-82.2 33.6,-156.91 87.73,-211.05 54.14,-54.13 128.84,-87.73 211.05,-87.73z"/>
   <path class="fil7" d="M1930.95 2110.3c-8.7,0 -15.6,-2.15 -20.72,-6.46 -5.12,-4.31 -7.73,-10.15 -7.81,-17.52l14.56 0c0,3.5 1.26,6.23 3.79,8.21 2.52,1.98 5.96,2.97 10.31,2.97 4.19,0 7.47,-0.97 9.84,-2.91 2.37,-1.94 3.55,-4.62 3.55,-8.03 0,-2.87 -0.85,-5.36 -2.56,-7.46 -1.71,-2.09 -4.08,-3.57 -7.1,-4.42l-9.78 -2.68c-6.68,-1.71 -11.82,-4.77 -15.43,-9.2 -3.61,-4.42 -5.42,-9.78 -5.42,-16.07 0,-4.81 1.09,-9 3.26,-12.57 2.18,-3.57 5.26,-6.33 9.26,-8.27 4,-1.94 8.71,-2.91 14.15,-2.91 8.23,0 14.75,2.11 19.56,6.35 4.81,4.23 7.26,9.92 7.34,17.06l-14.56 0c0,-3.34 -1.09,-5.96 -3.26,-7.86 -2.17,-1.9 -5.24,-2.85 -9.2,-2.85 -3.88,0 -6.85,0.91 -8.91,2.74 -2.06,1.83 -3.09,4.33 -3.09,7.51 0,2.95 0.8,5.45 2.39,7.51 1.59,2.06 3.9,3.52 6.93,4.37l10.13 2.79c6.75,1.7 11.91,4.75 15.49,9.14 3.57,4.38 5.35,9.8 5.35,16.24 0,4.81 -1.16,9.07 -3.49,12.75 -2.33,3.69 -5.61,6.54 -9.84,8.56 -4.23,2.02 -9.14,3.03 -14.73,3.03zm43.55 -1.17l0 -13.27 22.35 0 0 -37.61 -19.45 0 0 -13.16 33.42 0 0 50.77 19.8 0 0 13.27 -56.12 0zm28.18 -74.75c-2.95,0 -5.28,-0.76 -6.99,-2.27 -1.71,-1.52 -2.56,-3.55 -2.56,-6.11 0,-2.56 0.85,-4.6 2.56,-6.11 1.71,-1.52 4.03,-2.27 6.99,-2.27 2.95,0 5.27,0.76 6.98,2.27 1.71,1.52 2.56,3.55 2.56,6.11 0,2.56 -0.85,4.6 -2.56,6.11 -1.71,1.51 -4.03,2.27 -6.98,2.27zm41.8 74.75l0 -64.04 14.2 0 0 12.23 0.23 0c0.7,-4.19 2.53,-7.47 5.48,-9.84 2.95,-2.37 6.79,-3.55 11.53,-3.55 6.29,0 11.31,2.1 15.08,6.29 3.77,4.19 5.65,9.82 5.65,16.88l0 42.04 -14.56 0 0 -40.52c0,-3.88 -1.03,-6.87 -3.09,-8.97 -2.05,-2.09 -4.83,-3.14 -8.33,-3.14 -3.65,0 -6.5,1.08 -8.56,3.26 -2.05,2.17 -3.09,5.28 -3.09,9.31l0 40.06 -14.55 0zm78.59 20.96l0 -12.11 18.98 0c6.52,0 9.78,-3.07 9.78,-9.2l0 -4.77 0.23 -11.99 -0.23 0c-0.62,4.19 -2.41,7.47 -5.36,9.84 -2.95,2.37 -6.75,3.55 -11.41,3.55 -6.52,0 -11.7,-2.21 -15.54,-6.64 -3.84,-4.42 -5.77,-10.4 -5.77,-17.93l0 -12.46c0,-7.45 1.92,-13.39 5.77,-17.82 3.84,-4.42 9.03,-6.64 15.54,-6.64 4.66,0 8.46,1.18 11.41,3.55 2.95,2.37 4.74,5.65 5.36,9.84l0.23 0 -0.35 -12.23 14.56 0 0 64.04c0,6.52 -2.13,11.65 -6.4,15.37 -4.27,3.73 -10.13,5.59 -17.58,5.59l-19.21 0zm16.89 -37.26c3.72,0 6.62,-1.11 8.67,-3.32 2.06,-2.21 3.09,-5.3 3.09,-9.26l0 -11.18c0,-3.96 -1.03,-7.04 -3.09,-9.25 -2.05,-2.21 -4.95,-3.32 -8.67,-3.32 -3.73,0 -6.6,1.08 -8.62,3.26 -2.02,2.17 -3.03,5.28 -3.03,9.31l0 11.18c0,4.04 1.01,7.14 3.03,9.31 2.02,2.18 4.89,3.26 8.62,3.26zm80.57 16.3c-6.36,0 -11.47,-1.9 -15.31,-5.7 -3.84,-3.8 -5.76,-8.81 -5.76,-15.02l0 -51.12 -21.08 0 0 -13.16 35.63 0 0 64.28c0,2.25 0.68,4.07 2.04,5.47 1.36,1.4 3.2,2.1 5.53,2.1l18.75 0 0 13.15 -19.8 0zm59.62 1.17c-5.43,0 -10.17,-1.05 -14.21,-3.15 -4.03,-2.09 -7.16,-5.02 -9.37,-8.79 -2.21,-3.76 -3.32,-8.17 -3.32,-13.21l0 -16.07c0,-5.04 1.11,-9.45 3.32,-13.22 2.21,-3.76 5.34,-6.69 9.37,-8.79 4.03,-2.09 8.77,-3.15 14.21,-3.15 5.36,0 10.03,1.05 14.03,3.15 4,2.1 7.1,5.03 9.32,8.79 2.21,3.77 3.31,8.18 3.31,13.22l0 11.53 -39.47 0 0 4.54c0,9.08 4.31,13.62 12.93,13.62 6.67,0 10.6,-2.21 11.76,-6.64l14.32 0c-1.09,5.51 -4.01,9.92 -8.79,13.22 -4.77,3.3 -10.58,4.95 -17.41,4.95zm-12.81 -41.22l0 2.45 25.38 -0.12 0 -2.44c0,-4.42 -1.05,-7.82 -3.15,-10.19 -2.09,-2.37 -5.24,-3.55 -9.43,-3.55 -4.27,0 -7.47,1.2 -9.6,3.61 -2.14,2.41 -3.2,5.82 -3.2,10.25zm-343.97 164.18l0 -71.5 -22.24 0 0 -13.51 59.15 0 0 13.51 -22.24 0 0 71.5 -14.67 0zm51.23 0l0 -85 14.56 0 0 20.96 -0.35 12.23 0.23 0c0.62,-4.19 2.43,-7.47 5.42,-9.84 2.99,-2.37 6.85,-3.55 11.59,-3.55 6.29,0 11.31,2.09 15.08,6.29 3.77,4.19 5.65,9.82 5.65,16.89l0 42.04 -14.56 0 0 -40.52c0,-3.89 -1.03,-6.87 -3.09,-8.97 -2.05,-2.09 -4.87,-3.14 -8.44,-3.14 -3.57,0 -6.38,1.09 -8.44,3.26 -2.06,2.17 -3.09,5.28 -3.09,9.31l0 40.06 -14.56 0zm71.84 0l0 -64.04 13.74 0 0 12.23 0.11 0c2.02,-8.93 7.88,-13.39 17.58,-13.39 6.91,0 12.34,2.13 16.3,6.4 3.96,4.27 5.94,10.17 5.94,17.7l0 4.66 -15.26 0 0 -3.61c0,-4.11 -1.07,-7.29 -3.2,-9.55 -2.14,-2.25 -5.07,-3.38 -8.79,-3.38 -3.72,0 -6.64,1.13 -8.73,3.38 -2.1,2.25 -3.15,5.43 -3.15,9.55l0 40.06 -14.56 0zm93.97 1.17c-5.44,0 -10.17,-1.05 -14.21,-3.15 -4.04,-2.1 -7.16,-5.03 -9.37,-8.79 -2.21,-3.76 -3.32,-8.17 -3.32,-13.21l0 -16.07c0,-5.04 1.11,-9.45 3.32,-13.21 2.21,-3.76 5.33,-6.7 9.37,-8.79 4.03,-2.09 8.77,-3.14 14.21,-3.14 5.36,0 10.03,1.05 14.03,3.14 4,2.1 7.1,5.03 9.32,8.79 2.21,3.77 3.32,8.17 3.32,13.21l0 11.53 -39.47 0 0 4.54c0,9.08 4.31,13.62 12.92,13.62 6.68,0 10.6,-2.21 11.76,-6.64l14.32 0c-1.09,5.51 -4.02,9.92 -8.79,13.21 -4.77,3.3 -10.58,4.95 -17.41,4.95zm-12.81 -41.22l0 2.45 25.38 -0.12 0 -2.44c0,-4.42 -1.05,-7.82 -3.15,-10.19 -2.1,-2.37 -5.24,-3.55 -9.43,-3.55 -4.27,0 -7.47,1.2 -9.6,3.61 -2.14,2.41 -3.2,5.82 -3.2,10.25zm75.45 41.22c-6.6,0 -11.8,-1.73 -15.6,-5.18 -3.8,-3.45 -5.71,-8.17 -5.71,-14.15 0,-6.29 2.12,-11.14 6.35,-14.56 4.23,-3.41 10.15,-5.12 17.76,-5.12l15.95 0 0 -5.48c0,-3.11 -1.01,-5.53 -3.03,-7.28 -2.02,-1.74 -4.77,-2.62 -8.27,-2.62 -3.18,0 -5.82,0.7 -7.92,2.1 -2.09,1.39 -3.34,3.29 -3.72,5.7l-14.21 0c0.7,-6.05 3.42,-10.87 8.15,-14.44 4.73,-3.57 10.79,-5.35 18.16,-5.35 7.77,0 13.94,1.96 18.52,5.88 4.58,3.92 6.87,9.22 6.87,15.89l0 43.43 -14.09 0 0 -11.18 -0.23 0c-0.78,3.8 -2.85,6.81 -6.23,9.03 -3.38,2.21 -7.63,3.32 -12.75,3.32zm4.77 -10.95c4.11,0 7.47,-1.05 10.07,-3.15 2.6,-2.09 3.9,-4.81 3.9,-8.15l0 -7.8 -15.72 0c-2.95,0 -5.32,0.85 -7.1,2.56 -1.78,1.71 -2.68,3.96 -2.68,6.75 0,3.03 1.03,5.42 3.09,7.16 2.06,1.75 4.87,2.62 8.44,2.62zm66.72 10.95c-6.44,0 -11.6,-2.19 -15.49,-6.58 -3.88,-4.38 -5.82,-10.34 -5.82,-17.87l0 -17.35c0,-7.53 1.94,-13.51 5.82,-17.93 3.88,-4.42 9.04,-6.64 15.49,-6.64 4.74,0 8.58,1.18 11.53,3.55 2.95,2.37 4.77,5.65 5.47,9.84l0.35 0 -0.47 -15.25 0 -17.93 14.56 0 0 85 -14.21 0 0 -12.23 -0.23 0c-0.62,4.27 -2.42,7.57 -5.41,9.9 -2.99,2.33 -6.85,3.5 -11.59,3.5zm5.12 -12.58c3.72,0 6.62,-1.11 8.68,-3.32 2.05,-2.21 3.08,-5.3 3.08,-9.26l0 -16.07c0,-3.96 -1.03,-7.04 -3.08,-9.25 -2.06,-2.21 -4.95,-3.32 -8.68,-3.32 -3.73,0 -6.64,1.09 -8.73,3.26 -2.09,2.17 -3.15,5.28 -3.15,9.31l0 16.07c0,4.04 1.05,7.14 3.15,9.32 2.1,2.17 5.01,3.26 8.73,3.26z"/>
   <path class="fil7" d="M2504.91 1362.85l0 -85 25.27 0c5.74,0 10.73,1.11 14.96,3.32 4.23,2.21 7.51,5.3 9.84,9.26 2.33,3.96 3.49,8.62 3.49,13.97l0 31.79c0,5.35 -1.17,10.03 -3.49,14.03 -2.33,4 -5.61,7.1 -9.84,9.31 -4.23,2.21 -9.22,3.32 -14.96,3.32l-25.27 0zm14.56 -13.39l10.71 0c4.19,0 7.53,-1.18 10.01,-3.55 2.48,-2.37 3.73,-5.61 3.73,-9.72l0 -31.79c0,-4.04 -1.24,-7.24 -3.73,-9.61 -2.48,-2.37 -5.82,-3.55 -10.01,-3.55l-10.71 0 0 58.22zm81.63 14.56c-5.43,0 -10.17,-1.05 -14.21,-3.15 -4.03,-2.09 -7.16,-5.03 -9.37,-8.79 -2.21,-3.76 -3.32,-8.17 -3.32,-13.21l0 -16.07c0,-5.05 1.11,-9.45 3.32,-13.22 2.21,-3.76 5.34,-6.7 9.37,-8.79 4.03,-2.1 8.77,-3.15 14.21,-3.15 5.36,0 10.03,1.05 14.03,3.15 4,2.09 7.1,5.03 9.32,8.79 2.21,3.77 3.31,8.17 3.31,13.22l0 11.53 -39.47 0 0 4.54c0,9.08 4.31,13.62 12.93,13.62 6.68,0 10.6,-2.21 11.76,-6.64l14.32 0c-1.09,5.51 -4.01,9.92 -8.79,13.21 -4.77,3.3 -10.58,4.95 -17.41,4.95zm-12.81 -41.22l0 2.44 25.38 -0.12 0 -2.44c0,-4.42 -1.05,-7.82 -3.14,-10.19 -2.1,-2.37 -5.24,-3.55 -9.44,-3.55 -4.27,0 -7.47,1.2 -9.6,3.61 -2.14,2.41 -3.2,5.82 -3.2,10.25zm92.92 40.06c-6.36,0 -11.47,-1.9 -15.31,-5.7 -3.84,-3.81 -5.76,-8.81 -5.76,-15.02l0 -51.12 -21.07 0 0 -13.16 35.63 0 0 64.28c0,2.25 0.68,4.07 2.04,5.47 1.36,1.4 3.2,2.09 5.53,2.09l18.75 0 0 13.16 -19.8 0zm59.62 1.17c-5.43,0 -10.17,-1.05 -14.21,-3.15 -4.03,-2.09 -7.16,-5.03 -9.37,-8.79 -2.21,-3.76 -3.32,-8.17 -3.32,-13.21l0 -16.07c0,-5.05 1.11,-9.45 3.32,-13.22 2.21,-3.76 5.34,-6.7 9.37,-8.79 4.04,-2.1 8.77,-3.15 14.21,-3.15 5.36,0 10.03,1.05 14.03,3.15 4,2.09 7.1,5.03 9.32,8.79 2.21,3.77 3.31,8.17 3.31,13.22l0 11.53 -39.47 0 0 4.54c0,9.08 4.31,13.62 12.93,13.62 6.68,0 10.6,-2.21 11.76,-6.64l14.32 0c-1.09,5.51 -4.01,9.92 -8.79,13.21 -4.77,3.3 -10.58,4.95 -17.41,4.95zm-12.81 -41.22l0 2.44 25.38 -0.12 0 -2.44c0,-4.42 -1.05,-7.82 -3.14,-10.19 -2.1,-2.37 -5.24,-3.55 -9.44,-3.55 -4.27,0 -7.47,1.2 -9.6,3.61 -2.13,2.41 -3.2,5.82 -3.2,10.25zm65.33 61.02l0 -12.11 18.98 0c6.52,0 9.78,-3.06 9.78,-9.2l0 -4.77 0.23 -11.99 -0.23 0c-0.62,4.19 -2.41,7.47 -5.35,9.84 -2.95,2.37 -6.75,3.55 -11.41,3.55 -6.52,0 -11.7,-2.21 -15.55,-6.64 -3.84,-4.42 -5.76,-10.4 -5.76,-17.93l0 -12.46c0,-7.45 1.92,-13.39 5.76,-17.82 3.85,-4.42 9.03,-6.64 15.55,-6.64 4.66,0 8.46,1.18 11.41,3.55 2.95,2.37 4.74,5.65 5.35,9.84l0.23 0 -0.35 -12.23 14.56 0 0 64.04c0,6.52 -2.14,11.64 -6.4,15.37 -4.27,3.73 -10.13,5.59 -17.58,5.59l-19.21 0zm16.88 -37.26c3.73,0 6.62,-1.11 8.68,-3.32 2.06,-2.21 3.09,-5.3 3.09,-9.26l0 -11.18c0,-3.96 -1.03,-7.05 -3.09,-9.26 -2.06,-2.21 -4.95,-3.32 -8.68,-3.32 -3.72,0 -6.6,1.09 -8.62,3.26 -2.02,2.17 -3.03,5.28 -3.03,9.32l0 11.18c0,4.03 1.01,7.14 3.03,9.31 2.02,2.18 4.89,3.26 8.62,3.26zm63.11 17.47c-6.6,0 -11.8,-1.73 -15.6,-5.18 -3.81,-3.45 -5.71,-8.17 -5.71,-14.15 0,-6.29 2.12,-11.14 6.35,-14.56 4.23,-3.41 10.15,-5.12 17.76,-5.12l15.95 0 0 -5.48c0,-3.11 -1.01,-5.53 -3.03,-7.27 -2.02,-1.75 -4.77,-2.62 -8.27,-2.62 -3.18,0 -5.82,0.7 -7.92,2.1 -2.09,1.4 -3.34,3.3 -3.73,5.7l-14.21 0c0.7,-6.05 3.42,-10.87 8.15,-14.44 4.74,-3.57 10.79,-5.36 18.17,-5.36 7.77,0 13.93,1.96 18.52,5.88 4.58,3.92 6.87,9.22 6.87,15.89l0 43.43 -14.09 0 0 -11.18 -0.24 0c-0.78,3.8 -2.85,6.81 -6.23,9.03 -3.38,2.21 -7.63,3.32 -12.75,3.32zm4.77 -10.95c4.11,0 7.47,-1.05 10.07,-3.15 2.6,-2.09 3.9,-4.81 3.9,-8.15l0 -7.8 -15.72 0c-2.95,0 -5.32,0.85 -7.1,2.56 -1.79,1.71 -2.68,3.96 -2.68,6.75 0,3.03 1.03,5.42 3.09,7.16 2.05,1.74 4.87,2.62 8.44,2.62zm79.18 9.78c-6.13,0 -10.93,-1.71 -14.38,-5.12 -3.46,-3.41 -5.18,-8.11 -5.18,-14.09l0 -31.67 -17.35 0 0 -13.16 17.35 0 0 -18.05 14.67 0 0 18.05 24.57 0 0 13.16 -24.57 0 0 31.67c0,4.04 1.98,6.05 5.94,6.05l17.47 0 0 13.16 -18.52 0zm63 1.17c-5.43,0 -10.17,-1.05 -14.21,-3.15 -4.04,-2.09 -7.16,-5.03 -9.37,-8.79 -2.21,-3.76 -3.32,-8.17 -3.32,-13.21l0 -16.07c0,-5.05 1.11,-9.45 3.32,-13.22 2.21,-3.76 5.33,-6.7 9.37,-8.79 4.03,-2.1 8.77,-3.15 14.21,-3.15 5.36,0 10.03,1.05 14.03,3.15 4,2.09 7.1,5.03 9.31,8.79 2.21,3.77 3.32,8.17 3.32,13.22l0 11.53 -39.47 0 0 4.54c0,9.08 4.31,13.62 12.92,13.62 6.68,0 10.6,-2.21 11.76,-6.64l14.32 0c-1.09,5.51 -4.02,9.92 -8.79,13.21 -4.77,3.3 -10.58,4.95 -17.41,4.95zm-12.81 -41.22l0 2.44 25.38 -0.12 0 -2.44c0,-4.42 -1.05,-7.82 -3.15,-10.19 -2.1,-2.37 -5.24,-3.55 -9.43,-3.55 -4.27,0 -7.47,1.2 -9.6,3.61 -2.14,2.41 -3.2,5.82 -3.2,10.25z"/>
   <path class="fil7" d="M4282.55 1318.7l0 -85 17.82 0 23.64 68.7c-0.23,-2.48 -0.46,-5.42 -0.7,-8.79 -0.23,-3.38 -0.44,-6.81 -0.64,-10.31 -0.19,-3.49 -0.29,-6.6 -0.29,-9.31l0 -40.29 13.27 0 0 85 -17.82 0 -23.4 -68.7c0.16,2.25 0.35,4.97 0.59,8.15 0.23,3.18 0.43,6.44 0.58,9.78 0.16,3.34 0.23,6.4 0.23,9.2l0 41.57 -13.27 0zm96.41 1.05c-8.23,0 -14.75,-2.27 -19.56,-6.81 -4.81,-4.54 -7.22,-10.66 -7.22,-18.34l0 -15.84c0,-7.69 2.41,-13.8 7.22,-18.34 4.81,-4.54 11.33,-6.81 19.56,-6.81 8.23,0 14.75,2.27 19.56,6.81 4.81,4.54 7.22,10.61 7.22,18.22l0 15.95c0,7.68 -2.41,13.8 -7.22,18.34 -4.81,4.54 -11.33,6.81 -19.56,6.81zm0 -12.69c3.88,0 6.89,-1.07 9.03,-3.2 2.13,-2.13 3.2,-5.22 3.2,-9.25l0 -15.84c0,-4.04 -1.07,-7.12 -3.2,-9.26 -2.14,-2.14 -5.14,-3.2 -9.03,-3.2 -3.88,0 -6.89,1.07 -9.02,3.2 -2.13,2.13 -3.2,5.22 -3.2,9.26l0 15.84c0,4.03 1.07,7.12 3.2,9.25 2.13,2.14 5.14,3.2 9.02,3.2zm43.9 11.64l0 -64.04 14.21 0 0 12.23 0.24 0c0.7,-4.19 2.52,-7.47 5.47,-9.84 2.95,-2.37 6.79,-3.55 11.53,-3.55 6.29,0 11.32,2.1 15.08,6.29 3.77,4.19 5.65,9.82 5.65,16.88l0 42.04 -14.56 0 0 -40.52c0,-3.88 -1.03,-6.87 -3.09,-8.97 -2.05,-2.09 -4.83,-3.14 -8.33,-3.14 -3.65,0 -6.5,1.08 -8.56,3.26 -2.06,2.17 -3.09,5.28 -3.09,9.31l0 40.06 -14.56 0zm77.2 -31.67l0 -13.51 37.26 0 0 13.51 -37.26 0zm-464.94 156.96c-4.74,0 -8.6,-1.17 -11.58,-3.5 -2.99,-2.33 -4.79,-5.62 -5.42,-9.89l-0.23 0 0 12.22 -14.21 0 0 -85 14.55 0 0 17.93 -0.46 15.26 0.35 0c0.7,-4.19 2.52,-7.47 5.47,-9.84 2.95,-2.37 6.79,-3.55 11.53,-3.55 6.44,0 11.6,2.21 15.49,6.64 3.88,4.42 5.82,10.4 5.82,17.93l0 17.35c0,7.53 -1.94,13.49 -5.82,17.87 -3.88,4.38 -9.04,6.58 -15.49,6.58zm-5.12 -12.58c3.73,0 6.64,-1.09 8.73,-3.26 2.09,-2.17 3.14,-5.28 3.14,-9.31l0 -16.07c0,-4.03 -1.05,-7.14 -3.14,-9.31 -2.1,-2.17 -5.01,-3.26 -8.73,-3.26 -3.73,0 -6.62,1.11 -8.68,3.32 -2.05,2.21 -3.09,5.3 -3.09,9.25l0 16.07c0,3.96 1.03,7.05 3.09,9.25 2.06,2.21 4.95,3.32 8.68,3.32zm79.88 11.41c-6.36,0 -11.47,-1.9 -15.31,-5.7 -3.84,-3.8 -5.77,-8.81 -5.77,-15.02l0 -51.12 -21.07 0 0 -13.16 35.63 0 0 64.27c0,2.25 0.68,4.07 2.04,5.47 1.36,1.4 3.2,2.1 5.53,2.1l18.74 0 0 13.15 -19.79 0zm59.5 1.05c-8.23,0 -14.75,-2.27 -19.56,-6.81 -4.81,-4.54 -7.22,-10.66 -7.22,-18.34l0 -15.84c0,-7.68 2.41,-13.8 7.22,-18.34 4.81,-4.54 11.33,-6.81 19.56,-6.81 8.23,0 14.75,2.27 19.56,6.81 4.81,4.54 7.22,10.62 7.22,18.22l0 15.95c0,7.68 -2.41,13.8 -7.22,18.34 -4.81,4.54 -11.33,6.81 -19.56,6.81zm0 -12.69c3.88,0 6.89,-1.07 9.02,-3.2 2.13,-2.14 3.2,-5.22 3.2,-9.26l0 -15.84c0,-4.03 -1.07,-7.12 -3.2,-9.26 -2.13,-2.13 -5.14,-3.2 -9.02,-3.2 -3.88,0 -6.89,1.07 -9.03,3.2 -2.13,2.14 -3.2,5.22 -3.2,9.26l0 15.84c0,4.03 1.07,7.12 3.2,9.26 2.14,2.13 5.14,3.2 9.03,3.2zm70.21 12.81c-5.43,0 -10.19,-1.03 -14.26,-3.09 -4.07,-2.05 -7.24,-4.97 -9.49,-8.73 -2.25,-3.76 -3.37,-8.21 -3.37,-13.33l0 -16.07c0,-5.12 1.13,-9.57 3.37,-13.33 2.25,-3.77 5.42,-6.68 9.49,-8.73 4.08,-2.06 8.83,-3.09 14.26,-3.09 8.07,0 14.51,2.07 19.33,6.23 4.81,4.16 7.34,9.8 7.57,16.95l-14.55 0c-0.23,-3.34 -1.44,-5.92 -3.61,-7.74 -2.17,-1.83 -5.09,-2.74 -8.73,-2.74 -3.88,0 -6.95,1.07 -9.2,3.2 -2.25,2.13 -3.38,5.18 -3.38,9.14l0 16.19c0,3.96 1.13,7.02 3.38,9.2 2.25,2.17 5.32,3.26 9.2,3.26 3.73,0 6.66,-0.91 8.79,-2.74 2.14,-1.83 3.32,-4.4 3.55,-7.75l14.55 0c-0.23,7.14 -2.76,12.79 -7.57,16.95 -4.81,4.15 -11.25,6.23 -19.33,6.23zm43.9 -1.17l0 -85 14.55 0 0 46.11 10.13 0 15.6 -25.15 16.3 0 -19.33 30.97 19.68 33.07 -16.65 0 -15.6 -26.55 -10.13 0 0 26.55 -14.55 0zm69.4 0l0 -13.27 22.36 0 0 -37.61 -19.45 0 0 -13.15 33.42 0 0 50.77 19.79 0 0 13.27 -56.12 0zm28.18 -74.75c-2.95,0 -5.28,-0.76 -6.99,-2.27 -1.71,-1.52 -2.56,-3.55 -2.56,-6.12 0,-2.56 0.85,-4.6 2.56,-6.11 1.71,-1.51 4.04,-2.27 6.99,-2.27 2.95,0 5.28,0.76 6.99,2.27 1.71,1.52 2.56,3.55 2.56,6.11 0,2.56 -0.85,4.6 -2.56,6.12 -1.71,1.51 -4.04,2.27 -6.99,2.27zm41.8 74.75l0 -64.04 14.21 0 0 12.23 0.24 0c0.7,-4.19 2.52,-7.47 5.47,-9.84 2.95,-2.37 6.79,-3.55 11.53,-3.55 6.29,0 11.32,2.09 15.08,6.29 3.77,4.19 5.65,9.82 5.65,16.89l0 42.03 -14.56 0 0 -40.52c0,-3.88 -1.03,-6.87 -3.09,-8.97 -2.05,-2.09 -4.83,-3.14 -8.33,-3.14 -3.65,0 -6.5,1.09 -8.56,3.26 -2.06,2.17 -3.09,5.28 -3.09,9.31l0 40.06 -14.56 0zm78.59 20.96l0 -12.11 18.98 0c6.52,0 9.78,-3.07 9.78,-9.2l0 -4.77 0.23 -11.99 -0.23 0c-0.62,4.19 -2.41,7.47 -5.36,9.84 -2.95,2.37 -6.75,3.55 -11.41,3.55 -6.52,0 -11.7,-2.21 -15.54,-6.64 -3.84,-4.42 -5.76,-10.4 -5.76,-17.93l0 -12.46c0,-7.45 1.92,-13.39 5.76,-17.82 3.85,-4.42 9.03,-6.64 15.54,-6.64 4.66,0 8.46,1.18 11.41,3.55 2.95,2.37 4.74,5.65 5.36,9.84l0.23 0 -0.35 -12.23 14.55 0 0 64.04c0,6.52 -2.13,11.64 -6.4,15.37 -4.27,3.73 -10.13,5.59 -17.58,5.59l-19.22 0zm16.89 -37.26c3.73,0 6.62,-1.11 8.68,-3.32 2.05,-2.21 3.09,-5.3 3.09,-9.26l0 -11.18c0,-3.96 -1.03,-7.04 -3.09,-9.25 -2.06,-2.21 -4.95,-3.32 -8.68,-3.32 -3.73,0 -6.6,1.09 -8.62,3.26 -2.02,2.17 -3.03,5.28 -3.03,9.31l0 11.18c0,4.04 1.01,7.14 3.03,9.32 2.02,2.17 4.89,3.26 8.62,3.26zm115.62 16.3l0 -12.81 17.11 0 0 -59.38 -17.11 0 0 -12.81 48.9 0 0 12.81 -17.12 0 0 59.38 17.12 0 0 12.81 -48.9 0zm66.37 12.81l40.75 -109.45 15.14 0 -40.76 109.45 -15.13 0zm97.81 -11.64c-8.15,0 -14.62,-2.27 -19.39,-6.81 -4.77,-4.54 -7.16,-10.66 -7.16,-18.34l0 -37.03c0,-7.68 2.39,-13.8 7.16,-18.34 4.77,-4.54 11.23,-6.81 19.39,-6.81 8.15,0 14.61,2.27 19.39,6.81 4.77,4.54 7.16,10.62 7.16,18.22l0 37.15c0,7.68 -2.39,13.8 -7.16,18.34 -4.77,4.54 -11.23,6.81 -19.39,6.81zm0 -12.81c3.96,0 6.95,-1.07 8.97,-3.2 2.02,-2.14 3.03,-5.18 3.03,-9.14l0 -37.03c0,-3.96 -1.01,-7.01 -3.03,-9.14 -2.02,-2.14 -5.01,-3.2 -8.97,-3.2 -3.96,0 -6.95,1.07 -8.97,3.2 -2.02,2.13 -3.03,5.18 -3.03,9.14l0 37.03c0,3.96 1.01,7 3.03,9.14 2.02,2.13 5.01,3.2 8.97,3.2z"/>
   <g>
    <path class="fil9" d="M1820.4 1383.91c79.23,0 143.46,64.23 143.46,143.46 0,79.23 -64.23,143.46 -143.46,143.46 -79.24,0 -143.47,-64.23 -143.47,-143.46 0,-79.23 64.23,-143.46 143.47,-143.46z"/>
    <path class="fil10" d="M1847.65 1606.82c-8.97,8.92 -23.47,8.88 -32.4,-0.09 -8.92,-8.97 -8.88,-23.48 0.09,-32.4l24.86 -24.68 -94.31 0c-12.69,0 -22.98,-10.29 -22.98,-22.97 0,-12.69 10.29,-22.98 22.98,-22.98l92.72 0 -23.24 -23.24c-8.97,-8.97 -8.97,-23.52 0,-32.49 8.97,-8.97 23.52,-8.97 32.49,0l63.35 63.35 -0.05 0.04 0.05 0.05c8.92,8.97 8.88,23.47 -0.09,32.4l-63.46 63z"/>
   </g>
   <g>
    <path class="fil11" d="M3153.47 567.37l702.25 0c15.84,0 28.79,12.95 28.79,28.79l0 1952.56c0,15.84 -12.95,28.79 -28.79,28.79l-702.25 0c-15.84,0 -28.79,-12.96 -28.79,-28.79l0 -1952.56c0,-15.84 12.95,-28.79 28.79,-28.79z"/>
   </g>
   <g id="_2553956165248">
    <path class="fil7" d="M3339.83 762.81l0 -85 28.29 0c5.67,0 10.62,1.09 14.85,3.26 4.23,2.17 7.51,5.22 9.84,9.14 2.33,3.92 3.5,8.52 3.5,13.8 0,5.28 -1.17,9.88 -3.5,13.8 -2.33,3.92 -5.61,6.97 -9.84,9.14 -4.23,2.17 -9.18,3.26 -14.85,3.26l-13.74 0 0 32.6 -14.55 0zm14.55 -45.76l13.74 0c4.11,0 7.38,-1.18 9.78,-3.55 2.41,-2.37 3.61,-5.53 3.61,-9.49 0,-3.96 -1.2,-7.12 -3.61,-9.49 -2.41,-2.37 -5.67,-3.55 -9.78,-3.55l-13.74 0 0 26.09zm81.28 46.93c-8.15,0 -14.62,-2.27 -19.39,-6.81 -4.77,-4.54 -7.16,-10.66 -7.16,-18.34l0 -37.03c0,-7.69 2.39,-13.8 7.16,-18.34 4.77,-4.54 11.24,-6.81 19.39,-6.81 8.15,0 14.61,2.27 19.39,6.81 4.77,4.54 7.16,10.61 7.16,18.22l0 37.15c0,7.68 -2.39,13.8 -7.16,18.34 -4.77,4.54 -11.24,6.81 -19.39,6.81zm0 -12.81c3.96,0 6.95,-1.07 8.96,-3.2 2.02,-2.13 3.03,-5.18 3.03,-9.14l0 -37.03c0,-3.96 -1.01,-7.01 -3.03,-9.14 -2.02,-2.14 -5.01,-3.2 -8.96,-3.2 -3.96,0 -6.95,1.07 -8.97,3.2 -2.02,2.13 -3.03,5.18 -3.03,9.14l0 37.03c0,3.96 1.01,7.01 3.03,9.14 2.02,2.13 5,3.2 8.97,3.2zm70.1 12.81c-8.7,0 -15.6,-2.16 -20.73,-6.47 -5.12,-4.31 -7.72,-10.15 -7.8,-17.52l14.56 0c0,3.5 1.26,6.23 3.78,8.21 2.52,1.98 5.96,2.97 10.31,2.97 4.19,0 7.47,-0.97 9.84,-2.91 2.37,-1.94 3.55,-4.62 3.55,-8.03 0,-2.87 -0.85,-5.36 -2.56,-7.46 -1.71,-2.09 -4.07,-3.57 -7.1,-4.42l-9.78 -2.68c-6.68,-1.71 -11.82,-4.77 -15.43,-9.2 -3.61,-4.42 -5.41,-9.78 -5.41,-16.07 0,-4.81 1.09,-9 3.26,-12.57 2.18,-3.57 5.26,-6.33 9.26,-8.27 4,-1.94 8.71,-2.91 14.15,-2.91 8.23,0 14.75,2.11 19.56,6.35 4.81,4.23 7.26,9.92 7.34,17.06l-14.56 0c0,-3.34 -1.09,-5.96 -3.26,-7.86 -2.17,-1.9 -5.24,-2.85 -9.2,-2.85 -3.88,0 -6.85,0.91 -8.91,2.73 -2.06,1.83 -3.09,4.33 -3.09,7.51 0,2.95 0.8,5.45 2.39,7.51 1.59,2.05 3.9,3.51 6.93,4.37l10.13 2.79c6.75,1.71 11.91,4.75 15.49,9.14 3.57,4.38 5.36,9.8 5.36,16.24 0,4.81 -1.17,9.06 -3.49,12.75 -2.33,3.69 -5.61,6.54 -9.84,8.56 -4.23,2.02 -9.14,3.03 -14.73,3.03zm45.18 -1.17l0 -12.81 17.12 0 0 -59.39 -17.12 0 0 -12.81 48.91 0 0 12.81 -17.11 0 0 59.39 17.11 0 0 12.81 -48.91 0zm62.65 0l23.52 -43.55 -22.13 -41.45 16.3 0 10.71 21.31c0.78,1.55 1.47,3.05 2.09,4.48 0.62,1.44 1.09,2.54 1.4,3.32 0.23,-0.78 0.66,-1.88 1.28,-3.32 0.62,-1.44 1.32,-2.93 2.1,-4.48l10.83 -21.31 15.84 0 -22.13 41.1 23.52 43.9 -16.3 0 -12 -23.52c-0.78,-1.48 -1.49,-2.97 -2.15,-4.48 -0.66,-1.51 -1.14,-2.7 -1.45,-3.55 -0.31,0.85 -0.78,2.02 -1.4,3.5 -0.62,1.47 -1.32,2.99 -2.1,4.54l-12.11 23.52 -15.84 0zm-278.64 124.13l21.42 -85 18.75 0 21.54 85 -14.9 0 -4.66 -20.61 -22.59 0 -4.66 20.61 -14.9 0zm22.24 -32.49l17.23 0 -5.12 -22.82c-0.85,-3.81 -1.59,-7.24 -2.21,-10.31 -0.62,-3.07 -1.05,-5.3 -1.28,-6.7 -0.24,1.4 -0.66,3.63 -1.28,6.7 -0.62,3.06 -1.36,6.46 -2.21,10.19l-5.12 22.94zm76.04 33.53c-7.3,0 -13.17,-1.67 -17.64,-5.01 -4.46,-3.33 -6.81,-7.84 -7.04,-13.51l14.56 0c0.15,2.09 1.14,3.74 2.97,4.95 1.82,1.2 4.21,1.8 7.16,1.8l5.12 0c3.57,0 6.25,-0.7 8.03,-2.09 1.78,-1.4 2.68,-3.3 2.68,-5.7 0,-4.27 -3.26,-6.87 -9.78,-7.8l-7.92 -1.17c-7.3,-1.01 -12.65,-2.95 -16.07,-5.82 -3.41,-2.87 -5.12,-7.18 -5.12,-12.93 0,-5.98 2.02,-10.62 6.05,-13.91 4.04,-3.3 9.98,-4.95 17.82,-4.95l4.42 0c7.07,0 12.75,1.59 17.06,4.77 4.31,3.18 6.62,7.45 6.93,12.81l-14.56 0c-0.23,-1.71 -1.18,-3.11 -2.85,-4.19 -1.67,-1.09 -3.86,-1.63 -6.58,-1.63l-4.42 0c-3.34,0 -5.76,0.6 -7.28,1.8 -1.51,1.2 -2.27,2.97 -2.27,5.3 0,2.17 0.66,3.8 1.98,4.89 1.32,1.09 3.45,1.82 6.4,2.21l8.27 1.17c7.61,1.08 13.22,3.12 16.83,6.11 3.61,2.99 5.41,7.4 5.41,13.22 0,6.29 -2.12,11.14 -6.35,14.56 -4.23,3.41 -10.46,5.12 -18.69,5.12l-5.12 0zm56.71 19.91l8.97 -24.45 -23.87 -60.55 15.95 0 11.88 32.72c0.62,1.78 1.24,3.94 1.87,6.46 0.62,2.52 1.09,4.6 1.39,6.23 0.39,-1.63 0.89,-3.71 1.52,-6.23 0.62,-2.52 1.24,-4.68 1.86,-6.46l11.18 -32.72 15.37 0 -30.86 85 -15.26 0zm59.5 -20.96l0 -64.04 14.21 0 0 12.23 0.23 0c0.7,-4.19 2.52,-7.47 5.47,-9.84 2.95,-2.37 6.79,-3.55 11.53,-3.55 6.29,0 11.31,2.09 15.08,6.29 3.76,4.19 5.65,9.82 5.65,16.88l0 42.04 -14.56 0 0 -40.52c0,-3.88 -1.03,-6.87 -3.09,-8.97 -2.05,-2.1 -4.83,-3.15 -8.33,-3.15 -3.65,0 -6.5,1.09 -8.56,3.26 -2.05,2.17 -3.08,5.28 -3.08,9.32l0 40.06 -14.56 0zm96.18 1.17c-5.44,0 -10.19,-1.03 -14.26,-3.09 -4.07,-2.05 -7.24,-4.97 -9.49,-8.73 -2.25,-3.76 -3.38,-8.21 -3.38,-13.33l0 -16.07c0,-5.12 1.13,-9.57 3.38,-13.33 2.25,-3.77 5.42,-6.68 9.49,-8.73 4.07,-2.05 8.83,-3.09 14.26,-3.09 8.07,0 14.51,2.08 19.33,6.23 4.81,4.15 7.34,9.8 7.57,16.94l-14.56 0c-0.23,-3.34 -1.44,-5.92 -3.61,-7.74 -2.17,-1.82 -5.09,-2.74 -8.73,-2.74 -3.88,0 -6.95,1.07 -9.2,3.2 -2.25,2.14 -3.38,5.18 -3.38,9.14l0 16.19c0,3.96 1.13,7.03 3.38,9.2 2.25,2.18 5.32,3.26 9.2,3.26 3.72,0 6.66,-0.91 8.79,-2.74 2.13,-1.82 3.32,-4.4 3.55,-7.74l14.56 0c-0.23,7.14 -2.76,12.79 -7.57,16.94 -4.81,4.15 -11.26,6.23 -19.33,6.23zm-357.01 122.96l0 -71.5 -22.24 0 0 -13.51 59.15 0 0 13.51 -22.24 0 0 71.5 -14.67 0zm51.23 0l0 -85 14.55 0 0 20.96 -0.35 12.23 0.23 0c0.62,-4.19 2.42,-7.47 5.41,-9.84 2.99,-2.37 6.85,-3.55 11.59,-3.55 6.29,0 11.31,2.09 15.08,6.29 3.77,4.19 5.65,9.82 5.65,16.89l0 42.04 -14.55 0 0 -40.52c0,-3.88 -1.03,-6.87 -3.09,-8.97 -2.05,-2.09 -4.87,-3.14 -8.44,-3.14 -3.57,0 -6.38,1.08 -8.44,3.26 -2.05,2.17 -3.09,5.28 -3.09,9.31l0 40.06 -14.55 0zm71.84 0l0 -64.04 13.74 0 0 12.23 0.12 0c2.02,-8.93 7.88,-13.39 17.58,-13.39 6.91,0 12.34,2.13 16.3,6.4 3.96,4.27 5.94,10.17 5.94,17.7l0 4.66 -15.25 0 0 -3.61c0,-4.11 -1.07,-7.29 -3.2,-9.55 -2.13,-2.25 -5.07,-3.37 -8.79,-3.37 -3.73,0 -6.64,1.13 -8.73,3.37 -2.1,2.26 -3.15,5.44 -3.15,9.55l0 40.06 -14.56 0zm93.97 1.16c-5.43,0 -10.17,-1.05 -14.21,-3.15 -4.03,-2.09 -7.16,-5.02 -9.37,-8.79 -2.21,-3.76 -3.32,-8.17 -3.32,-13.21l0 -16.07c0,-5.04 1.11,-9.45 3.32,-13.21 2.21,-3.77 5.34,-6.7 9.37,-8.79 4.03,-2.09 8.77,-3.14 14.21,-3.14 5.36,0 10.03,1.05 14.03,3.14 4,2.1 7.1,5.03 9.32,8.79 2.21,3.76 3.31,8.17 3.31,13.21l0 11.53 -39.47 0 0 4.54c0,9.08 4.31,13.62 12.93,13.62 6.68,0 10.6,-2.21 11.76,-6.64l14.32 0c-1.09,5.51 -4.01,9.92 -8.79,13.22 -4.77,3.3 -10.58,4.95 -17.41,4.95zm-12.81 -41.22l0 2.45 25.38 -0.12 0 -2.44c0,-4.42 -1.05,-7.82 -3.14,-10.19 -2.1,-2.37 -5.24,-3.55 -9.44,-3.55 -4.27,0 -7.47,1.2 -9.6,3.61 -2.14,2.41 -3.2,5.82 -3.2,10.25zm75.45 41.22c-6.6,0 -11.8,-1.72 -15.6,-5.18 -3.8,-3.46 -5.7,-8.17 -5.7,-14.15 0,-6.29 2.11,-11.14 6.35,-14.56 4.23,-3.42 10.15,-5.12 17.76,-5.12l15.95 0 0 -5.47c0,-3.11 -1.01,-5.53 -3.03,-7.28 -2.02,-1.75 -4.77,-2.62 -8.27,-2.62 -3.18,0 -5.82,0.7 -7.92,2.1 -2.1,1.4 -3.34,3.3 -3.73,5.71l-14.21 0c0.7,-6.05 3.42,-10.87 8.15,-14.44 4.74,-3.57 10.79,-5.35 18.17,-5.35 7.76,0 13.93,1.96 18.51,5.88 4.58,3.92 6.87,9.21 6.87,15.89l0 43.43 -14.09 0 0 -11.18 -0.23 0c-0.78,3.8 -2.85,6.81 -6.23,9.02 -3.38,2.21 -7.62,3.32 -12.75,3.32zm4.77 -10.94c4.11,0 7.47,-1.05 10.07,-3.15 2.6,-2.1 3.9,-4.81 3.9,-8.15l0 -7.8 -15.72 0c-2.95,0 -5.32,0.85 -7.1,2.56 -1.79,1.71 -2.68,3.96 -2.68,6.75 0,3.03 1.03,5.42 3.09,7.16 2.06,1.75 4.87,2.62 8.44,2.62zm66.72 10.94c-6.45,0 -11.61,-2.19 -15.49,-6.58 -3.88,-4.38 -5.82,-10.34 -5.82,-17.87l0 -17.35c0,-7.53 1.94,-13.51 5.82,-17.93 3.88,-4.42 9.04,-6.64 15.49,-6.64 4.73,0 8.57,1.18 11.53,3.55 2.95,2.37 4.77,5.65 5.47,9.84l0.35 0 -0.46 -15.26 0 -17.93 14.56 0 0 85 -14.21 0 0 -12.23 -0.23 0c-0.62,4.27 -2.42,7.57 -5.41,9.9 -2.99,2.33 -6.85,3.49 -11.58,3.49zm5.12 -12.58c3.72,0 6.62,-1.11 8.68,-3.32 2.06,-2.21 3.09,-5.29 3.09,-9.25l0 -16.07c0,-3.96 -1.03,-7.04 -3.09,-9.25 -2.06,-2.21 -4.95,-3.32 -8.68,-3.32 -3.72,0 -6.64,1.08 -8.73,3.26 -2.09,2.17 -3.14,5.28 -3.14,9.31l0 16.07c0,4.03 1.05,7.14 3.14,9.31 2.1,2.17 5.01,3.26 8.73,3.26zm67.77 12.46c-7.3,0 -13.18,-1.67 -17.64,-5.01 -4.46,-3.34 -6.81,-7.84 -7.05,-13.51l14.56 0c0.15,2.1 1.15,3.75 2.97,4.95 1.83,1.2 4.21,1.81 7.16,1.81l5.12 0c3.57,0 6.25,-0.7 8.03,-2.09 1.79,-1.4 2.68,-3.3 2.68,-5.71 0,-4.27 -3.26,-6.87 -9.78,-7.8l-7.92 -1.17c-7.29,-1.01 -12.65,-2.95 -16.07,-5.82 -3.42,-2.87 -5.12,-7.18 -5.12,-12.93 0,-5.98 2.02,-10.61 6.06,-13.91 4.03,-3.29 9.97,-4.95 17.82,-4.95l4.42 0c7.07,0 12.75,1.59 17.06,4.77 4.31,3.18 6.62,7.45 6.93,12.81l-14.56 0c-0.23,-1.71 -1.18,-3.11 -2.85,-4.19 -1.67,-1.09 -3.86,-1.63 -6.58,-1.63l-4.42 0c-3.34,0 -5.76,0.6 -7.28,1.81 -1.52,1.2 -2.27,2.97 -2.27,5.29 0,2.18 0.66,3.81 1.98,4.89 1.32,1.09 3.46,1.82 6.4,2.21l8.27 1.17c7.61,1.09 13.22,3.13 16.83,6.11 3.61,2.99 5.41,7.39 5.41,13.22 0,6.29 -2.11,11.14 -6.35,14.55 -4.23,3.42 -10.46,5.12 -18.69,5.12l-5.12 0z"/>
    <g>
     <path class="fil12" d="M3332.76 1150.31c79.23,0 143.46,64.23 143.46,143.46 0,79.23 -64.23,143.46 -143.46,143.46 -79.23,0 -143.46,-64.23 -143.46,-143.46 0,-79.23 64.23,-143.46 143.46,-143.46z"/>
     <path class="fil10" d="M3360.02 1373.22c-8.97,8.92 -23.48,8.88 -32.4,-0.09 -8.92,-8.97 -8.88,-23.47 0.09,-32.4l24.86 -24.68 -94.31 0c-12.69,0 -22.97,-10.29 -22.97,-22.97 0,-12.69 10.29,-22.97 22.97,-22.97l92.72 0 -23.24 -23.24c-8.97,-8.97 -8.97,-23.52 0,-32.49 8.97,-8.97 23.52,-8.97 32.49,0l63.35 63.35 -0.05 0.05 0.05 0.04c8.92,8.97 8.88,23.48 -0.09,32.4l-63.46 63z"/>
     <path class="fil13" d="M3676.43 1150.31c79.23,0 143.46,64.23 143.46,143.46 0,79.23 -64.23,143.46 -143.46,143.46 -79.23,0 -143.46,-64.23 -143.46,-143.46 0,-79.23 64.23,-143.46 143.46,-143.46z"/>
     <path class="fil10" d="M3703.69 1373.22c-8.97,8.92 -23.48,8.88 -32.4,-0.09 -8.92,-8.97 -8.88,-23.47 0.09,-32.4l24.86 -24.68 -94.31 0c-12.69,0 -22.97,-10.29 -22.97,-22.97 0,-12.69 10.29,-22.97 22.97,-22.97l92.72 0 -23.24 -23.24c-8.97,-8.97 -8.97,-23.52 0,-32.49 8.97,-8.97 23.51,-8.97 32.48,0l63.35 63.35 -0.04 0.05 0.04 0.04c8.92,8.97 8.88,23.48 -0.09,32.4l-63.46 63z"/>
     <path class="fil14" d="M3332.76 1493.98c79.23,0 143.46,64.23 143.46,143.46 0,79.23 -64.23,143.46 -143.46,143.46 -79.23,0 -143.46,-64.23 -143.46,-143.46 0,-79.23 64.23,-143.46 143.46,-143.46z"/>
     <path class="fil10" d="M3360.02 1716.89c-8.97,8.92 -23.48,8.88 -32.4,-0.09 -8.92,-8.97 -8.88,-23.47 0.09,-32.4l24.86 -24.68 -94.31 0c-12.69,0 -22.97,-10.29 -22.97,-22.97 0,-12.69 10.29,-22.97 22.97,-22.97l92.72 0 -23.24 -23.24c-8.97,-8.97 -8.97,-23.52 0,-32.49 8.97,-8.97 23.52,-8.97 32.49,0l63.35 63.35 -0.05 0.05 0.05 0.04c8.92,8.97 8.88,23.48 -0.09,32.4l-63.46 63z"/>
     <path class="fil15" d="M3676.43 1493.98c79.23,0 143.46,64.23 143.46,143.46 0,79.23 -64.23,143.46 -143.46,143.46 -79.23,0 -143.46,-64.23 -143.46,-143.46 0,-79.23 64.23,-143.46 143.46,-143.46z"/>
     <path class="fil10" d="M3703.69 1716.89c-8.97,8.92 -23.48,8.88 -32.4,-0.09 -8.92,-8.97 -8.88,-23.47 0.09,-32.4l24.86 -24.68 -94.31 0c-12.69,0 -22.97,-10.29 -22.97,-22.97 0,-12.69 10.29,-22.97 22.97,-22.97l92.72 0 -23.24 -23.24c-8.97,-8.97 -8.97,-23.52 0,-32.49 8.97,-8.97 23.51,-8.97 32.48,0l63.35 63.35 -0.04 0.05 0.04 0.04c8.92,8.97 8.88,23.48 -0.09,32.4l-63.46 63z"/>
     <path class="fil16" d="M3332.76 1837.65c79.23,0 143.46,64.23 143.46,143.46 0,79.24 -64.23,143.46 -143.46,143.46 -79.23,0 -143.46,-64.23 -143.46,-143.46 0,-79.23 64.23,-143.46 143.46,-143.46z"/>
     <path class="fil10" d="M3360.02 2060.56c-8.97,8.92 -23.48,8.88 -32.4,-0.09 -8.92,-8.97 -8.88,-23.48 0.09,-32.4l24.86 -24.68 -94.31 0c-12.69,0 -22.97,-10.29 -22.97,-22.97 0,-12.69 10.29,-22.97 22.97,-22.97l92.72 0 -23.24 -23.24c-8.97,-8.97 -8.97,-23.52 0,-32.49 8.97,-8.97 23.52,-8.97 32.49,0l63.35 63.35 -0.05 0.05 0.05 0.04c8.92,8.97 8.88,23.48 -0.09,32.4l-63.46 63z"/>
     <path class="fil16" d="M3676.43 1837.65c79.23,0 143.46,64.23 143.46,143.46 0,79.24 -64.23,143.46 -143.46,143.46 -79.23,0 -143.46,-64.23 -143.46,-143.46 0,-79.23 64.23,-143.46 143.46,-143.46z"/>
     <path class="fil10" d="M3703.69 2060.56c-8.97,8.92 -23.48,8.88 -32.4,-0.09 -8.92,-8.97 -8.88,-23.48 0.09,-32.4l24.86 -24.68 -94.31 0c-12.69,0 -22.97,-10.29 -22.97,-22.97 0,-12.69 10.29,-22.97 22.97,-22.97l92.72 0 -23.24 -23.24c-8.97,-8.97 -8.97,-23.52 0,-32.49 8.97,-8.97 23.51,-8.97 32.48,0l63.35 63.35 -0.04 0.05 0.04 0.04c8.92,8.97 8.88,23.48 -0.09,32.4l-63.46 63z"/>
     <path class="fil16" d="M3332.76 2181.32c79.23,0 143.46,64.23 143.46,143.46 0,79.24 -64.23,143.46 -143.46,143.46 -79.23,0 -143.46,-64.23 -143.46,-143.46 0,-79.23 64.23,-143.46 143.46,-143.46z"/>
     <path class="fil10" d="M3360.02 2404.24c-8.97,8.92 -23.48,8.88 -32.4,-0.09 -8.92,-8.97 -8.88,-23.48 0.09,-32.4l24.86 -24.68 -94.31 0c-12.69,0 -22.97,-10.29 -22.97,-22.97 0,-12.69 10.29,-22.97 22.97,-22.97l92.72 0 -23.24 -23.24c-8.97,-8.97 -8.97,-23.52 0,-32.49 8.97,-8.97 23.52,-8.97 32.49,0l63.35 63.35 -0.05 0.05 0.05 0.04c8.92,8.97 8.88,23.48 -0.09,32.4l-63.46 63z"/>
     <path class="fil16" d="M3676.43 2181.32c79.23,0 143.46,64.23 143.46,143.46 0,79.24 -64.23,143.46 -143.46,143.46 -79.23,0 -143.46,-64.23 -143.46,-143.46 0,-79.23 64.23,-143.46 143.46,-143.46z"/>
     <path class="fil10" d="M3703.69 2404.24c-8.97,8.92 -23.48,8.88 -32.4,-0.09 -8.92,-8.97 -8.88,-23.48 0.09,-32.4l24.86 -24.68 -94.31 0c-12.69,0 -22.97,-10.29 -22.97,-22.97 0,-12.69 10.29,-22.97 22.97,-22.97l92.72 0 -23.24 -23.24c-8.97,-8.97 -8.97,-23.52 0,-32.49 8.97,-8.97 23.51,-8.97 32.48,0l63.35 63.35 -0.04 0.05 0.04 0.04c8.92,8.97 8.88,23.48 -0.09,32.4l-63.46 63z"/>
    </g>
   </g>
   <path class="fil17" d="M2457.48 1606.82c8.97,8.92 23.48,8.88 32.4,-0.09 8.92,-8.97 8.88,-23.47 -0.09,-32.4l-24.86 -24.68 47.16 0 47.16 0 527.68 0 -24.86 24.68c-8.97,8.92 -9.01,23.42 -0.09,32.4 8.92,8.97 23.42,9.01 32.4,0.09l63.46 -63c8.97,-8.92 9.01,-23.42 0.09,-32.4l-0.04 -0.04 0.04 -0.04 -63.35 -63.35c-8.97,-8.97 -23.52,-8.97 -32.49,0 -8.97,8.97 -8.97,23.52 0,32.49l23.24 23.24 -526.08 0 -47.16 0 -45.56 0 23.24 -23.24c8.97,-8.97 8.97,-23.52 0,-32.49 -8.97,-8.97 -23.52,-8.97 -32.48,0l-63.35 63.35 0.04 0.04 -0.04 0.04c-8.92,8.97 -8.88,23.48 0.09,32.4l63.46 63z"/>
   <g id="_2553956208640">
    <path class="fil18" d="M2080.24 2946.06c79.23,0 143.46,64.23 143.46,143.46 0,79.23 -64.23,143.46 -143.46,143.46 -79.23,0 -143.46,-64.23 -143.46,-143.46 0,-79.23 64.23,-143.46 143.46,-143.46z"/>
    <path class="fil10" d="M2107.5 3168.97c-8.97,8.92 -23.48,8.88 -32.4,-0.09 -8.92,-8.97 -8.88,-23.47 0.09,-32.4l24.86 -24.68 -94.31 0c-12.69,0 -22.97,-10.29 -22.97,-22.97 0,-12.69 10.29,-22.97 22.97,-22.97l92.72 0 -23.24 -23.24c-8.97,-8.97 -8.97,-23.52 0,-32.49 8.97,-8.97 23.52,-8.97 32.48,0l63.35 63.35 -0.04 0.05 0.04 0.04c8.92,8.97 8.88,23.48 -0.09,32.4l-63.46 63z"/>
    <path class="fil7" d="M2362.34 3130.34l0 -71.49 -22.24 0 0 -13.51 59.15 0 0 13.51 -22.24 0 0 71.49 -14.67 0zm51.23 0l0 -85 14.55 0 0 20.96 -0.35 12.23 0.23 0c0.62,-4.19 2.42,-7.47 5.41,-9.84 2.99,-2.37 6.85,-3.55 11.59,-3.55 6.29,0 11.31,2.09 15.08,6.29 3.77,4.19 5.65,9.82 5.65,16.88l0 42.04 -14.55 0 0 -40.52c0,-3.88 -1.03,-6.87 -3.09,-8.97 -2.05,-2.09 -4.87,-3.14 -8.44,-3.14 -3.57,0 -6.38,1.08 -8.44,3.26 -2.05,2.17 -3.09,5.28 -3.09,9.31l0 40.06 -14.55 0zm71.84 0l0 -64.04 13.74 0 0 12.23 0.12 0c2.02,-8.93 7.88,-13.39 17.58,-13.39 6.91,0 12.34,2.13 16.3,6.4 3.96,4.27 5.94,10.17 5.94,17.7l0 4.66 -15.26 0 0 -3.61c0,-4.11 -1.06,-7.3 -3.2,-9.55 -2.13,-2.25 -5.07,-3.37 -8.79,-3.37 -3.73,0 -6.64,1.13 -8.73,3.37 -2.1,2.25 -3.15,5.44 -3.15,9.55l0 40.06 -14.56 0zm93.97 1.17c-5.43,0 -10.17,-1.05 -14.21,-3.15 -4.03,-2.09 -7.16,-5.02 -9.37,-8.79 -2.21,-3.76 -3.32,-8.17 -3.32,-13.21l0 -16.07c0,-5.04 1.11,-9.45 3.32,-13.22 2.21,-3.76 5.34,-6.69 9.37,-8.79 4.03,-2.09 8.77,-3.14 14.21,-3.14 5.36,0 10.03,1.05 14.03,3.14 4,2.1 7.1,5.03 9.32,8.79 2.21,3.77 3.31,8.18 3.31,13.22l0 11.53 -39.47 0 0 4.54c0,9.08 4.31,13.62 12.93,13.62 6.68,0 10.6,-2.22 11.76,-6.64l14.32 0c-1.09,5.51 -4.01,9.92 -8.79,13.22 -4.77,3.3 -10.58,4.95 -17.41,4.95zm-12.81 -41.22l0 2.45 25.38 -0.12 0 -2.44c0,-4.42 -1.05,-7.82 -3.14,-10.19 -2.1,-2.37 -5.24,-3.55 -9.44,-3.55 -4.27,0 -7.47,1.2 -9.6,3.61 -2.14,2.41 -3.2,5.82 -3.2,10.25zm75.45 41.22c-6.6,0 -11.8,-1.72 -15.6,-5.18 -3.8,-3.46 -5.7,-8.17 -5.7,-14.15 0,-6.29 2.11,-11.14 6.35,-14.56 4.23,-3.42 10.15,-5.12 17.76,-5.12l15.95 0 0 -5.47c0,-3.11 -1.01,-5.53 -3.03,-7.28 -2.02,-1.75 -4.77,-2.62 -8.27,-2.62 -3.18,0 -5.82,0.7 -7.92,2.1 -2.1,1.4 -3.34,3.3 -3.73,5.7l-14.21 0c0.7,-6.05 3.42,-10.87 8.15,-14.44 4.74,-3.57 10.79,-5.35 18.17,-5.35 7.76,0 13.93,1.96 18.51,5.88 4.58,3.92 6.87,9.22 6.87,15.9l0 43.43 -14.09 0 0 -11.17 -0.23 0c-0.78,3.8 -2.85,6.81 -6.23,9.02 -3.38,2.21 -7.62,3.32 -12.75,3.32zm4.77 -10.94c4.11,0 7.47,-1.05 10.07,-3.15 2.6,-2.1 3.9,-4.81 3.9,-8.15l0 -7.8 -15.72 0c-2.95,0 -5.32,0.85 -7.1,2.56 -1.79,1.71 -2.68,3.96 -2.68,6.75 0,3.03 1.03,5.42 3.09,7.16 2.06,1.75 4.87,2.62 8.44,2.62zm66.72 10.94c-6.45,0 -11.61,-2.19 -15.49,-6.58 -3.88,-4.39 -5.82,-10.34 -5.82,-17.87l0 -17.35c0,-7.53 1.94,-13.51 5.82,-17.93 3.88,-4.42 9.04,-6.64 15.49,-6.64 4.73,0 8.57,1.18 11.53,3.55 2.95,2.37 4.77,5.65 5.47,9.84l0.35 0 -0.46 -15.26 0 -17.93 14.56 0 0 85 -14.21 0 0 -12.23 -0.23 0c-0.62,4.27 -2.42,7.57 -5.41,9.9 -2.99,2.33 -6.85,3.49 -11.58,3.49zm5.12 -12.58c3.72,0 6.62,-1.11 8.68,-3.32 2.06,-2.21 3.09,-5.29 3.09,-9.25l0 -16.07c0,-3.96 -1.03,-7.04 -3.09,-9.25 -2.06,-2.21 -4.95,-3.32 -8.68,-3.32 -3.72,0 -6.64,1.08 -8.73,3.26 -2.09,2.17 -3.14,5.28 -3.14,9.31l0 16.07c0,4.03 1.05,7.14 3.14,9.31 2.1,2.17 5.01,3.26 8.73,3.26zm114.11 11.41l0 -85 28.3 0c5.66,0 10.62,1.09 14.85,3.26 4.23,2.17 7.51,5.22 9.84,9.14 2.33,3.92 3.49,8.52 3.49,13.8 0,5.28 -1.17,9.88 -3.49,13.8 -2.33,3.92 -5.61,6.97 -9.84,9.14 -4.23,2.17 -9.18,3.26 -14.85,3.26l-13.74 0 0 32.6 -14.56 0zm14.56 -45.76l13.74 0c4.11,0 7.37,-1.18 9.78,-3.55 2.41,-2.37 3.61,-5.53 3.61,-9.49 0,-3.96 -1.2,-7.12 -3.61,-9.49 -2.41,-2.37 -5.67,-3.55 -9.78,-3.55l-13.74 0 0 26.09zm57.29 45.76l0 -64.04 13.74 0 0 12.23 0.11 0c2.02,-8.93 7.88,-13.39 17.58,-13.39 6.91,0 12.34,2.13 16.3,6.4 3.96,4.27 5.94,10.17 5.94,17.7l0 4.66 -15.26 0 0 -3.61c0,-4.11 -1.07,-7.3 -3.2,-9.55 -2.14,-2.25 -5.07,-3.37 -8.79,-3.37 -3.72,0 -6.64,1.13 -8.73,3.37 -2.1,2.25 -3.15,5.44 -3.15,9.55l0 40.06 -14.56 0zm93.85 1.05c-8.23,0 -14.75,-2.27 -19.56,-6.81 -4.81,-4.54 -7.22,-10.65 -7.22,-18.34l0 -15.84c0,-7.69 2.41,-13.8 7.22,-18.34 4.81,-4.54 11.34,-6.81 19.56,-6.81 8.23,0 14.75,2.27 19.56,6.81 4.81,4.54 7.22,10.62 7.22,18.22l0 15.95c0,7.69 -2.41,13.8 -7.22,18.34 -4.81,4.54 -11.34,6.81 -19.56,6.81zm0 -12.69c3.89,0 6.89,-1.07 9.03,-3.2 2.13,-2.13 3.2,-5.22 3.2,-9.26l0 -15.84c0,-4.04 -1.07,-7.12 -3.2,-9.26 -2.14,-2.13 -5.14,-3.2 -9.03,-3.2 -3.88,0 -6.89,1.07 -9.02,3.2 -2.14,2.13 -3.2,5.22 -3.2,9.26l0 15.84c0,4.03 1.07,7.12 3.2,9.26 2.13,2.13 5.14,3.2 9.02,3.2zm70.21 12.81c-5.43,0 -10.19,-1.03 -14.26,-3.09 -4.08,-2.05 -7.24,-4.97 -9.49,-8.73 -2.26,-3.77 -3.38,-8.21 -3.38,-13.33l0 -16.07c0,-5.12 1.12,-9.57 3.38,-13.33 2.25,-3.77 5.41,-6.68 9.49,-8.73 4.07,-2.06 8.83,-3.09 14.26,-3.09 8.07,0 14.52,2.07 19.33,6.23 4.81,4.15 7.34,9.8 7.57,16.94l-14.55 0c-0.23,-3.33 -1.44,-5.92 -3.61,-7.74 -2.18,-1.82 -5.09,-2.74 -8.73,-2.74 -3.88,0 -6.95,1.07 -9.2,3.2 -2.25,2.13 -3.38,5.18 -3.38,9.14l0 16.19c0,3.96 1.13,7.02 3.38,9.2 2.25,2.18 5.32,3.26 9.2,3.26 3.73,0 6.66,-0.91 8.79,-2.74 2.13,-1.83 3.32,-4.41 3.55,-7.75l14.55 0c-0.23,7.14 -2.76,12.79 -7.57,16.95 -4.81,4.15 -11.26,6.23 -19.33,6.23zm69.63 0c-5.43,0 -10.17,-1.05 -14.21,-3.15 -4.03,-2.09 -7.16,-5.02 -9.37,-8.79 -2.21,-3.76 -3.32,-8.17 -3.32,-13.21l0 -16.07c0,-5.04 1.11,-9.45 3.32,-13.22 2.21,-3.76 5.34,-6.69 9.37,-8.79 4.03,-2.09 8.77,-3.14 14.21,-3.14 5.36,0 10.03,1.05 14.03,3.14 4,2.1 7.1,5.03 9.32,8.79 2.21,3.77 3.31,8.18 3.31,13.22l0 11.53 -39.47 0 0 4.54c0,9.08 4.31,13.62 12.93,13.62 6.68,0 10.6,-2.22 11.76,-6.64l14.32 0c-1.09,5.51 -4.01,9.92 -8.79,13.22 -4.77,3.3 -10.58,4.95 -17.41,4.95zm-12.81 -41.22l0 2.45 25.38 -0.12 0 -2.44c0,-4.42 -1.05,-7.82 -3.14,-10.19 -2.1,-2.37 -5.24,-3.55 -9.44,-3.55 -4.27,0 -7.47,1.2 -9.6,3.61 -2.14,2.41 -3.2,5.82 -3.2,10.25zm80.11 41.11c-7.29,0 -13.17,-1.67 -17.64,-5.01 -4.46,-3.34 -6.81,-7.84 -7.05,-13.51l14.56 0c0.15,2.1 1.14,3.75 2.97,4.95 1.82,1.2 4.21,1.81 7.16,1.81l5.12 0c3.57,0 6.25,-0.7 8.03,-2.1 1.79,-1.39 2.68,-3.3 2.68,-5.7 0,-4.27 -3.26,-6.87 -9.78,-7.8l-7.92 -1.17c-7.3,-1.01 -12.65,-2.95 -16.07,-5.82 -3.42,-2.87 -5.12,-7.18 -5.12,-12.93 0,-5.98 2.02,-10.61 6.06,-13.91 4.03,-3.3 9.97,-4.95 17.81,-4.95l4.43 0c7.06,0 12.75,1.59 17.06,4.77 4.31,3.18 6.62,7.45 6.93,12.81l-14.55 0c-0.23,-1.71 -1.18,-3.11 -2.85,-4.19 -1.67,-1.09 -3.86,-1.63 -6.58,-1.63l-4.43 0c-3.33,0 -5.76,0.6 -7.27,1.81 -1.52,1.2 -2.27,2.97 -2.27,5.29 0,2.18 0.66,3.81 1.98,4.89 1.32,1.09 3.45,1.82 6.4,2.21l8.27 1.17c7.61,1.09 13.22,3.13 16.83,6.11 3.61,2.99 5.41,7.39 5.41,13.21 0,6.29 -2.11,11.14 -6.35,14.56 -4.23,3.42 -10.46,5.12 -18.69,5.12l-5.12 0zm69.86 0c-7.29,0 -13.17,-1.67 -17.64,-5.01 -4.46,-3.34 -6.81,-7.84 -7.05,-13.51l14.56 0c0.15,2.1 1.15,3.75 2.97,4.95 1.83,1.2 4.21,1.81 7.16,1.81l5.12 0c3.57,0 6.25,-0.7 8.03,-2.1 1.79,-1.39 2.68,-3.3 2.68,-5.7 0,-4.27 -3.26,-6.87 -9.78,-7.8l-7.92 -1.17c-7.3,-1.01 -12.65,-2.95 -16.07,-5.82 -3.42,-2.87 -5.12,-7.18 -5.12,-12.93 0,-5.98 2.02,-10.61 6.06,-13.91 4.03,-3.3 9.97,-4.95 17.82,-4.95l4.42 0c7.06,0 12.75,1.59 17.06,4.77 4.31,3.18 6.62,7.45 6.93,12.81l-14.55 0c-0.23,-1.71 -1.18,-3.11 -2.85,-4.19 -1.67,-1.09 -3.86,-1.63 -6.58,-1.63l-4.42 0c-3.34,0 -5.77,0.6 -7.28,1.81 -1.52,1.2 -2.27,2.97 -2.27,5.29 0,2.18 0.66,3.81 1.98,4.89 1.32,1.09 3.46,1.82 6.4,2.21l8.27 1.17c7.61,1.09 13.22,3.13 16.83,6.11 3.61,2.99 5.41,7.39 5.41,13.21 0,6.29 -2.11,11.14 -6.35,14.56 -4.23,3.42 -10.46,5.12 -18.69,5.12l-5.12 0zm46.23 -1.05l0 -13.27 22.35 0 0 -37.61 -19.45 0 0 -13.16 33.42 0 0 50.77 19.8 0 0 13.27 -56.12 0zm28.18 -74.75c-2.95,0 -5.27,-0.76 -6.99,-2.27 -1.71,-1.52 -2.56,-3.55 -2.56,-6.11 0,-2.56 0.85,-4.6 2.56,-6.11 1.71,-1.52 4.04,-2.27 6.99,-2.27 2.95,0 5.28,0.76 6.99,2.27 1.71,1.52 2.56,3.55 2.56,6.11 0,2.56 -0.85,4.6 -2.56,6.11 -1.71,1.51 -4.03,2.27 -6.99,2.27zm41.8 74.75l0 -64.04 14.21 0 0 12.23 0.23 0c0.7,-4.19 2.53,-7.47 5.48,-9.84 2.95,-2.37 6.79,-3.55 11.53,-3.55 6.29,0 11.31,2.09 15.08,6.29 3.77,4.19 5.65,9.82 5.65,16.88l0 42.04 -14.56 0 0 -40.52c0,-3.88 -1.03,-6.87 -3.09,-8.97 -2.05,-2.09 -4.83,-3.14 -8.33,-3.14 -3.65,0 -6.5,1.08 -8.56,3.26 -2.06,2.17 -3.09,5.28 -3.09,9.31l0 40.06 -14.56 0zm78.6 20.96l0 -12.11 18.98 0c6.52,0 9.78,-3.07 9.78,-9.2l0 -4.77 0.23 -11.99 -0.23 0c-0.62,4.19 -2.41,7.47 -5.36,9.84 -2.95,2.37 -6.75,3.55 -11.41,3.55 -6.52,0 -11.7,-2.21 -15.54,-6.64 -3.84,-4.43 -5.77,-10.4 -5.77,-17.93l0 -12.46c0,-7.45 1.92,-13.39 5.77,-17.82 3.84,-4.42 9.03,-6.64 15.54,-6.64 4.66,0 8.46,1.18 11.41,3.55 2.95,2.37 4.74,5.65 5.36,9.84l0.23 0 -0.35 -12.23 14.56 0 0 64.04c0,6.52 -2.13,11.65 -6.4,15.37 -4.27,3.73 -10.13,5.59 -17.58,5.59l-19.21 0zm16.89 -37.26c3.72,0 6.62,-1.11 8.67,-3.32 2.06,-2.21 3.09,-5.3 3.09,-9.26l0 -11.18c0,-3.96 -1.03,-7.04 -3.09,-9.25 -2.05,-2.21 -4.95,-3.32 -8.67,-3.32 -3.73,0 -6.6,1.08 -8.62,3.26 -2.02,2.17 -3.03,5.28 -3.03,9.31l0 11.18c0,4.04 1.01,7.14 3.03,9.31 2.02,2.18 4.89,3.26 8.62,3.26z"/>
   </g>
   <path class="fil7" d="M2472.87 201.27l0 -78.64 16.48 0 21.87 63.56c-0.21,-2.3 -0.43,-5.01 -0.65,-8.14 -0.22,-3.13 -0.41,-6.3 -0.59,-9.53 -0.18,-3.23 -0.27,-6.11 -0.27,-8.62l0 -37.28 12.28 0 0 78.64 -16.48 0 -21.65 -63.56c0.14,2.08 0.32,4.59 0.54,7.54 0.22,2.95 0.4,5.96 0.54,9.05 0.15,3.09 0.22,5.92 0.22,8.51l0 38.46 -12.28 0zm89.2 0.97c-7.62,0 -13.65,-2.1 -18.1,-6.31 -4.46,-4.2 -6.68,-9.86 -6.68,-16.97l0 -14.65c0,-7.11 2.22,-12.77 6.68,-16.97 4.45,-4.2 10.48,-6.3 18.1,-6.3 7.61,0 13.64,2.1 18.09,6.3 4.46,4.2 6.68,9.82 6.68,16.86l0 14.76c0,7.11 -2.22,12.77 -6.68,16.97 -4.45,4.2 -10.49,6.31 -18.09,6.31zm0 -11.75c3.59,0 6.37,-0.99 8.34,-2.96 1.98,-1.98 2.96,-4.83 2.96,-8.57l0 -14.65c0,-3.74 -0.98,-6.59 -2.96,-8.57 -1.97,-1.98 -4.75,-2.96 -8.34,-2.96 -3.59,0 -6.38,0.99 -8.35,2.96 -1.97,1.98 -2.96,4.83 -2.96,8.57l0 14.65c0,3.73 0.99,6.59 2.96,8.57 1.98,1.97 4.76,2.96 8.35,2.96zm59.57 11.85c-5.96,0 -10.74,-2.03 -14.33,-6.09 -3.59,-4.06 -5.39,-9.57 -5.39,-16.54l0 -16.05c0,-6.96 1.8,-12.49 5.39,-16.59 3.59,-4.09 8.36,-6.14 14.33,-6.14 4.38,0 7.94,1.09 10.66,3.28 2.73,2.19 4.42,5.23 5.07,9.1l0.32 0 -0.43 -14.11 0 -16.59 13.47 0 0 78.64 -13.14 0 0 -11.31 -0.21 0c-0.57,3.95 -2.24,7 -5.01,9.16 -2.77,2.15 -6.34,3.23 -10.72,3.23zm4.74 -11.64c3.45,0 6.12,-1.02 8.03,-3.07 1.9,-2.05 2.85,-4.9 2.85,-8.57l0 -14.87c0,-3.66 -0.95,-6.51 -2.85,-8.57 -1.91,-2.05 -4.58,-3.07 -8.03,-3.07 -3.45,0 -6.14,1 -8.08,3.02 -1.94,2.01 -2.91,4.88 -2.91,8.62l0 14.87c0,3.74 0.96,6.61 2.91,8.62 1.94,2.01 4.63,3.02 8.08,3.02zm65.07 11.64c-5.03,0 -9.41,-0.97 -13.14,-2.91 -3.74,-1.94 -6.62,-4.65 -8.67,-8.13 -2.05,-3.48 -3.07,-7.56 -3.07,-12.23l0 -14.87c0,-4.67 1.02,-8.74 3.07,-12.23 2.05,-3.48 4.94,-6.2 8.67,-8.13 3.74,-1.94 8.12,-2.91 13.14,-2.91 4.96,0 9.28,0.97 12.98,2.91 3.7,1.94 6.57,4.65 8.62,8.13 2.05,3.48 3.07,7.56 3.07,12.23l0 10.67 -36.52 0 0 4.2c0,8.4 3.98,12.6 11.95,12.6 6.18,0 9.81,-2.05 10.88,-6.14l13.25 0c-1,5.1 -3.72,9.18 -8.13,12.23 -4.42,3.05 -9.79,4.58 -16.11,4.58zm-11.85 -38.14l0 2.26 23.48 -0.11 0 -2.26c0,-4.09 -0.97,-7.23 -2.91,-9.43 -1.94,-2.19 -4.85,-3.29 -8.73,-3.29 -3.95,0 -6.91,1.11 -8.89,3.34 -1.98,2.23 -2.96,5.38 -2.96,9.48zm141.23 38.14c-8.04,0 -14.43,-2 -19.17,-5.98 -4.74,-3.99 -7.15,-9.39 -7.22,-16.21l13.47 0c0,3.23 1.17,5.76 3.5,7.59 2.33,1.83 5.51,2.75 9.53,2.75 3.88,0 6.92,-0.9 9.1,-2.69 2.19,-1.79 3.29,-4.27 3.29,-7.43 0,-2.66 -0.79,-4.96 -2.37,-6.9 -1.58,-1.94 -3.77,-3.3 -6.57,-4.09l-9.05 -2.48c-6.18,-1.58 -10.93,-4.42 -14.28,-8.51 -3.34,-4.1 -5.01,-9.05 -5.01,-14.87 0,-4.45 1.01,-8.33 3.02,-11.63 2.01,-3.31 4.87,-5.85 8.56,-7.65 3.7,-1.79 8.07,-2.69 13.09,-2.69 7.61,0 13.65,1.96 18.1,5.87 4.45,3.91 6.72,9.18 6.79,15.78l-13.47 0c0,-3.09 -1.01,-5.51 -3.02,-7.27 -2.01,-1.76 -4.85,-2.64 -8.51,-2.64 -3.59,0 -6.34,0.85 -8.24,2.53 -1.91,1.68 -2.85,4 -2.85,6.95 0,2.73 0.74,5.04 2.21,6.95 1.47,1.91 3.61,3.25 6.41,4.04l9.37 2.59c6.25,1.58 11.03,4.4 14.33,8.46 3.3,4.06 4.96,9.07 4.96,15.03 0,4.45 -1.08,8.38 -3.23,11.79 -2.16,3.41 -5.19,6.05 -9.1,7.92 -3.92,1.87 -8.46,2.8 -13.63,2.8zm64.53 0c-5.03,0 -9.41,-0.97 -13.14,-2.91 -3.74,-1.94 -6.62,-4.65 -8.67,-8.13 -2.05,-3.48 -3.07,-7.56 -3.07,-12.23l0 -14.87c0,-4.67 1.02,-8.74 3.07,-12.23 2.05,-3.48 4.94,-6.2 8.67,-8.13 3.74,-1.94 8.12,-2.91 13.14,-2.91 4.96,0 9.28,0.97 12.98,2.91 3.7,1.94 6.57,4.65 8.62,8.13 2.05,3.48 3.07,7.56 3.07,12.23l0 10.67 -36.52 0 0 4.2c0,8.4 3.99,12.6 11.96,12.6 6.18,0 9.8,-2.05 10.88,-6.14l13.25 0c-1,5.1 -3.72,9.18 -8.13,12.23 -4.42,3.05 -9.79,4.58 -16.11,4.58zm-11.85 -38.14l0 2.26 23.48 -0.11 0 -2.26c0,-4.09 -0.97,-7.23 -2.91,-9.43 -1.94,-2.19 -4.85,-3.29 -8.73,-3.29 -3.95,0 -6.91,1.11 -8.89,3.34 -1.97,2.23 -2.96,5.38 -2.96,9.48zm54.19 37.06l0 -59.25 12.71 0 0 11.31 0.11 0c1.87,-8.26 7.29,-12.39 16.27,-12.39 6.39,0 11.42,1.97 15.08,5.92 3.66,3.95 5.49,9.41 5.49,16.37l0 4.31 -14.11 0 0 -3.34c0,-3.81 -0.98,-6.75 -2.96,-8.83 -1.98,-2.08 -4.69,-3.13 -8.14,-3.13 -3.45,0 -6.14,1.04 -8.08,3.13 -1.94,2.08 -2.91,5.03 -2.91,8.83l0 37.06 -13.47 0zm78.21 0l-19.5 -59.25 14.01 0 11.31 35.99c0.65,2.15 1.24,4.38 1.78,6.68 0.54,2.29 0.95,4.13 1.24,5.49 0.36,-1.37 0.81,-3.2 1.35,-5.49 0.54,-2.3 1.13,-4.49 1.78,-6.57l11.1 -36.09 13.68 0 -19.39 59.25 -17.34 0zm73.36 1.08c-5.03,0 -9.41,-0.97 -13.14,-2.91 -3.74,-1.94 -6.62,-4.65 -8.68,-8.13 -2.04,-3.48 -3.07,-7.56 -3.07,-12.23l0 -14.87c0,-4.67 1.02,-8.74 3.07,-12.23 2.05,-3.48 4.94,-6.2 8.68,-8.13 3.73,-1.94 8.11,-2.91 13.14,-2.91 4.96,0 9.28,0.97 12.98,2.91 3.7,1.94 6.57,4.65 8.62,8.13 2.05,3.48 3.07,7.56 3.07,12.23l0 10.67 -36.52 0 0 4.2c0,8.4 3.99,12.6 11.96,12.6 6.18,0 9.81,-2.05 10.88,-6.14l13.25 0c-1,5.1 -3.72,9.18 -8.14,12.23 -4.42,3.05 -9.78,4.58 -16.1,4.58zm-11.85 -38.14l0 2.26 23.49 -0.11 0 -2.26c0,-4.09 -0.97,-7.23 -2.91,-9.43 -1.94,-2.19 -4.85,-3.29 -8.73,-3.29 -3.95,0 -6.91,1.11 -8.89,3.34 -1.98,2.23 -2.96,5.38 -2.96,9.48zm54.19 37.06l0 -59.25 12.71 0 0 11.31 0.11 0c1.87,-8.26 7.29,-12.39 16.27,-12.39 6.39,0 11.42,1.97 15.08,5.92 3.66,3.95 5.49,9.41 5.49,16.37l0 4.31 -14.11 0 0 -3.34c0,-3.81 -0.99,-6.75 -2.96,-8.83 -1.98,-2.08 -4.69,-3.13 -8.13,-3.13 -3.45,0 -6.14,1.04 -8.08,3.13 -1.94,2.08 -2.91,5.03 -2.91,8.83l0 37.06 -13.47 0z"/>
   <path class="fil19" d="M2360.04 253.31c-2.52,0 -4.87,-0.67 -7.05,-1.85l-22.33 -13.26c-3.36,-1.85 -1.68,-2.52 -0.67,-2.85 4.53,-1.51 5.37,-1.85 10.07,-4.53 0.5,-0.33 1.17,-0.17 1.68,0.17l17.12 10.24c0.67,0.34 1.51,0.34 2.02,0l66.98 -38.78c0.67,-0.33 1.01,-1.01 1.01,-1.85l0 -77.39c0,-0.84 -0.34,-1.51 -1.01,-1.85l-66.98 -38.61c-0.67,-0.33 -1.51,-0.33 -2.02,0l-66.98 38.61c-0.67,0.33 -1.01,1.17 -1.01,1.85l0 77.39c0,0.67 0.34,1.51 1.01,1.85l18.3 10.58c9.9,5.03 16.11,-0.84 16.11,-6.72l0 -76.38c0,-1.01 0.84,-2.02 2.02,-2.02l8.56 0c1.01,0 2.02,0.84 2.02,2.02l0 76.38c0,13.26 -7.22,20.98 -19.81,20.98 -3.86,0 -6.88,0 -15.44,-4.2l-17.63 -10.07c-4.37,-2.52 -7.05,-7.22 -7.05,-12.25l0 -77.39c0,-5.04 2.68,-9.74 7.05,-12.26l66.98 -38.78c4.2,-2.35 9.9,-2.35 14.1,0l66.98 38.78c4.36,2.52 7.05,7.22 7.05,12.26l0 77.39c0,5.03 -2.69,9.73 -7.05,12.25l-66.98 38.78c-2.18,1.01 -4.7,1.51 -7.05,1.51l0 0zm20.65 -53.21c-29.38,0 -35.42,-13.43 -35.42,-24.85 0,-1.01 0.84,-2.01 2.02,-2.01l8.73 0c1.01,0 1.85,0.67 1.85,1.68 1.34,8.9 5.2,13.26 23,13.26 14.1,0 20.14,-3.19 20.14,-10.74 0,-4.37 -1.68,-7.55 -23.67,-9.74 -18.3,-1.85 -29.71,-5.87 -29.71,-20.48 0,-13.6 11.42,-21.65 30.55,-21.65 21.49,0 32.06,7.39 33.41,23.5 0,0.5 -0.17,1 -0.5,1.51 -0.33,0.34 -0.84,0.67 -1.34,0.67l-8.73 0c-0.84,0 -1.68,-0.67 -1.85,-1.51 -2.02,-9.23 -7.22,-12.25 -20.98,-12.25 -15.44,0 -17.29,5.37 -17.29,9.4 0,4.87 2.18,6.38 23,9.07 20.65,2.68 30.38,6.55 30.38,20.98 -0.17,14.77 -12.25,23.16 -33.57,23.16l0 0z"/>
  </g>
 </g>
</svg>
