<?xml version="1.0" encoding="UTF-8"?>
<!DOCTYPE svg PUBLIC "-//W3C//DTD SVG 1.1//EN" "http://www.w3.org/Graphics/SVG/1.1/DTD/svg11.dtd">
<!-- Creator: CorelDRAW 2019 (64-Bit) -->
<svg xmlns="http://www.w3.org/2000/svg" xml:space="preserve" width="2.14583in" height="0.474047in" version="1.1" style="shape-rendering:geometricPrecision; text-rendering:geometricPrecision; image-rendering:optimizeQuality; fill-rule:evenodd; clip-rule:evenodd"
viewBox="0 0 2145.83 474.05"
 xmlns:xlink="http://www.w3.org/1999/xlink"
 xmlns:xodm="http://www.corel.com/coreldraw/odm/2003">
 <defs>
  <style type="text/css">
   <![CDATA[
    .fil1 {fill:url(#id0)}
    .fil6 {fill:url(#id1)}
    .fil4 {fill:url(#id2)}
    .fil2 {fill:url(#id3)}
    .fil3 {fill:url(#id4)}
    .fil0 {fill:url(#id5)}
    .fil5 {fill:url(#id6)}
    .fil7 {fill:url(#id7)}
   ]]>
  </style>
  <linearGradient id="id0" gradientUnits="userSpaceOnUse" x1="-2583.33" y1="237.48" x2="2145.83" y2="237.48">
   <stop offset="0" style="stop-opacity:1; stop-color:#8257E6"/>
   <stop offset="0.529412" style="stop-opacity:1; stop-color:#4763FF"/>
   <stop offset="1" style="stop-opacity:1; stop-color:#04D361"/>
  </linearGradient>
  <linearGradient id="id1" gradientUnits="userSpaceOnUse" xlink:href="#id0" x1="-2563.2" y1="237.48" x2="2143.54" y2="237.48">
  </linearGradient>
  <linearGradient id="id2" gradientUnits="userSpaceOnUse" xlink:href="#id0" x1="-2583.33" y1="237.48" x2="2145.83" y2="237.48">
  </linearGradient>
  <linearGradient id="id3" gradientUnits="userSpaceOnUse" xlink:href="#id0" x1="-2583.33" y1="237.48" x2="2145.83" y2="237.48">
  </linearGradient>
  <linearGradient id="id4" gradientUnits="userSpaceOnUse" xlink:href="#id0" x1="-2567.14" y1="237.48" x2="2139.6" y2="237.48">
  </linearGradient>
  <linearGradient id="id5" gradientUnits="userSpaceOnUse" xlink:href="#id0" x1="-2583.33" y1="237.48" x2="2145.83" y2="237.48">
  </linearGradient>
  <linearGradient id="id6" gradientUnits="userSpaceOnUse" xlink:href="#id0" x1="-2583.33" y1="237.48" x2="2145.83" y2="237.48">
  </linearGradient>
  <linearGradient id="id7" gradientUnits="userSpaceOnUse" xlink:href="#id0" x1="-2583.33" y1="237.48" x2="2145.83" y2="237.48">
  </linearGradient>
 </defs>
 <g id="Layer_x0020_1">
  <metadata id="CorelCorpID_0Corel-Layer"/>
  <g id="_2555478738400">
   <polygon class="fil0" points="124.32,34.83 64.52,34.83 64.52,105.22 -0,105.22 -0,153.7 64.52,153.7 64.52,367.03 124.32,367.03 124.32,153.7 188.49,153.7 188.49,105.22 124.32,105.22 "/>
   <path class="fil1" d="M430.61 115.64c-23.2,-10.77 -49.65,-16.16 -79.37,-16.16 -29.73,0 -56.19,5.39 -79.75,16.16 -23.2,10.78 -41.69,26.57 -55.46,47.05 -13.77,20.47 -20.29,45.25 -20.29,73.98 0,29.09 6.89,53.87 20.29,74.34 13.77,20.47 32.26,35.91 55.46,46.33 23.2,10.41 50.02,15.8 79.75,15.8 29.72,0 56.18,-5.39 79.37,-15.8 23.2,-10.41 41.32,-25.86 55.09,-46.33 13.42,-20.47 20.3,-44.89 20.3,-74.34 0,-28.73 -6.89,-53.51 -20.3,-73.98 -13.77,-20.47 -31.89,-35.91 -55.09,-47.05zm1.81 169.15c-8.33,13.29 -19.94,22.98 -34.07,29.81 -14.13,6.82 -30.08,10.41 -47.11,10.41 -17.41,0 -33.35,-3.59 -47.49,-10.41 -14.14,-6.82 -25.73,-16.88 -34.07,-29.81 -8.33,-13.29 -12.69,-29.09 -12.69,-48.12 0,-19.04 4.35,-35.2 13.05,-48.48 8.7,-13.29 20.3,-23.34 34.44,-30.52 14.5,-7.19 30.08,-10.42 47.11,-10.42 17.76,0 33.35,3.59 47.49,10.42 14.13,7.18 25.37,17.24 33.7,30.88 8.33,13.65 12.69,29.45 12.69,48.13 -0.37,19.03 -4.71,35.19 -13.05,48.12z"/>
   <path class="fil2" d="M677.82 100.91c-6.89,-1.07 -14.13,-1.43 -21.39,-1.43 -26.1,0 -49.3,4.67 -69.23,14.36 -19.94,9.34 -35.53,22.63 -47.12,39.86 -11.24,17.24 -17.04,37.35 -17.04,61.05 0,23.34 5.8,43.81 17.41,60.33 11.59,16.88 27.19,29.81 47.48,38.43 6.17,2.52 12.32,4.67 18.85,6.46 -9.43,0 -18.49,0.72 -26.82,1.8 -14.5,2.16 -26.11,6.82 -34.8,14.01 -8.7,7.18 -13.41,17.59 -13.41,31.24 0,7.18 1.45,13.65 4.34,19.39 2.91,6.11 7.25,11.13 13.42,15.44 6.16,4.31 14.13,7.54 24.28,10.06 10.15,2.15 22.48,3.59 36.97,3.59l72.87 0c18.48,0 32.61,3.59 43.13,10.41 10.15,7.19 15.22,19.04 15.22,35.91l0 12.21 59.81 0 0 -23.7c0,-21.19 -4.35,-37.71 -13.41,-49.56 -8.7,-12.21 -21.39,-20.83 -37.7,-25.85 -16.31,-5.03 -35.52,-7.54 -57.27,-7.54l-76.48 0c-7.61,0 -13.77,-1.44 -18.13,-4.67 -4.34,-3.23 -6.52,-7.54 -6.52,-12.57 0,-8.62 5.44,-14.72 16.31,-17.59 10.87,-2.87 26.82,-4.67 48.21,-5.39 25.73,0 48.57,-4.31 68.5,-13.29 19.94,-8.62 35.17,-21.55 46.4,-37.71 11.24,-16.52 16.68,-36.27 16.68,-58.9 0,-14 -2.9,-26.57 -8.33,-37.35 -5.8,-10.77 -13.42,-20.47 -23.2,-29.09 -5.44,-4.67 -10.88,-8.98 -17.04,-12.93 9.79,3.59 19.94,7.18 31.54,10.41 17.39,5.03 34.43,7.54 51.47,7.54l0 -49.92 -124.69 -0.36c-6.89,-2.15 -13.42,-3.59 -20.3,-4.67zm42.41 77.57c6.53,10.06 9.43,21.91 9.43,35.91 0,14.01 -3.26,25.86 -9.43,35.91 -6.52,9.7 -15.22,17.24 -26.09,22.26 -11.24,5.03 -23.56,7.54 -37.33,7.54 -14.5,0 -27.19,-2.51 -38.06,-7.54 -10.87,-5.02 -19.57,-12.57 -26.09,-22.26 -6.53,-9.7 -9.43,-21.91 -9.43,-35.91 0,-14 3.26,-25.85 9.43,-35.91 6.52,-10.06 15.22,-17.59 26.09,-22.98 11.24,-5.39 23.93,-7.9 38.06,-7.9 14.13,0 26.82,2.51 37.7,7.9 10.51,5.39 19.21,13.29 25.73,22.98z"/>
   <path class="fil3" d="M1067.11 116c-21.38,-11.13 -47.84,-16.52 -79.37,-16.52 -30.81,0 -58,5.74 -81.2,16.88 -23.2,11.13 -41.69,27.29 -55.09,47.76 -13.42,20.83 -19.94,44.89 -19.94,72.54 0,28.01 6.89,52.07 20.3,72.54 13.77,20.47 32.26,35.91 56.18,47.04 23.56,11.13 51.11,16.52 81.92,16.52 26.82,0 50.02,-3.95 68.87,-11.85 19.21,-7.9 34.44,-18.67 46.03,-32.68 11.6,-14 18.49,-29.81 21.39,-47.76l-57.99 0c-4.72,12.93 -13.78,23.7 -27.92,31.96 -14.13,8.26 -31.17,12.21 -51.83,12.21 -18.85,0 -35.16,-3.23 -48.93,-10.06 -13.78,-6.82 -24.65,-15.8 -32.99,-27.3 -7.98,-11.49 -13.05,-24.78 -14.87,-39.5l235.25 0c1.81,-33.4 -2.54,-61.05 -12.69,-82.96 -10.15,-21.19 -25.74,-37.71 -47.13,-48.84zm-171.44 93.37c4.71,-18.31 14.86,-33.04 30.08,-44.53 15.59,-11.49 35.52,-17.24 59.81,-17.24 23.2,0 42.41,5.39 56.91,16.16 14.5,10.78 22.47,26.22 24.28,45.61l-171.08 0z"/>
   <polygon class="fil4" points="1259.95,34.83 1200.15,34.83 1200.15,105.22 1135.63,105.22 1135.63,153.7 1200.15,153.7 1200.15,367.03 1259.95,367.03 1259.95,153.7 1324.11,153.7 1324.11,105.22 1259.95,105.22 "/>
   <path class="fil5" d="M1603.21 124.62c-9.42,-8.26 -20.65,-14.37 -33.71,-18.67 -13.04,-4.31 -27.54,-6.46 -43.13,-6.46 -16.3,0 -31.17,2.87 -44.94,8.26 -13.78,5.39 -25.37,12.57 -35.17,21.91 -9.78,8.98 -17.76,19.39 -23.91,31.24 -3.27,6.46 -5.8,13.29 -7.98,19.75l0 -180.64 -59.81 0 0 367.03 59.81 0 0 -156.22c2.54,-7.54 6.17,-14.37 11.24,-21.19 8.7,-11.13 19.57,-20.11 33.34,-26.93 13.42,-6.82 28.64,-10.06 45.31,-10.06 16.31,0 29.35,2.51 39.15,7.18 9.78,4.67 17.39,11.85 22.11,21.19 4.71,9.34 7.24,20.83 7.24,34.83l0 150.83 60.18 0 0 -169.86c0,-16.16 -2.54,-30.17 -7.61,-42.38 -5.44,-11.49 -12.69,-21.91 -22.11,-29.81z"/>
   <path class="fil6" d="M1898.26 116c-21.38,-11.13 -47.84,-16.52 -79.37,-16.52 -30.81,0 -58,5.74 -81.2,16.88 -23.2,11.13 -41.68,27.29 -55.09,47.76 -13.41,20.83 -19.94,44.89 -19.94,72.54 0,28.01 6.89,52.07 20.3,72.54 13.77,20.47 32.26,35.91 56.18,47.04 23.56,11.13 51.11,16.52 81.93,16.52 26.82,0 50.02,-3.95 68.87,-11.85 19.21,-7.9 34.44,-18.67 46.03,-32.68 11.6,-14 18.49,-29.81 21.39,-47.76l-57.99 0c-4.72,12.93 -13.77,23.7 -27.92,31.96 -14.13,8.26 -31.17,12.21 -51.83,12.21 -18.85,0 -35.16,-3.23 -48.93,-10.06 -13.78,-6.82 -24.65,-15.8 -32.99,-27.3 -7.97,-11.49 -13.04,-24.78 -14.85,-39.5l235.24 0c1.81,-33.4 -2.54,-61.05 -12.69,-82.96 -9.78,-21.19 -25.74,-37.71 -47.13,-48.84zm-171.08 93.37c4.71,-18.31 14.87,-33.04 30.08,-44.53 15.59,-11.49 35.52,-17.24 59.81,-17.24 23.2,0 42.41,5.39 56.91,16.16 14.5,10.78 22.47,26.22 24.28,45.61l-171.08 0z"/>
   <path class="fil7" d="M2106.32 107.74c-11.24,5.74 -20.65,12.93 -28.27,21.91 -7.62,8.98 -13.77,18.31 -18.49,27.65 -4.34,8.62 -7.25,16.88 -9.43,24.42l0 -76.49 -60.17 0 0 261.8 59.81 0 0 -146.17c3.26,-7.54 7.6,-15.8 13.41,-23.7 8.34,-11.49 19.21,-21.55 32.99,-29.45 13.77,-7.9 30.08,-12.21 49.66,-12.21l0 -56.39c-14.87,0.36 -28.27,3.23 -39.51,8.62z"/>
  </g>
 </g>
</svg>
